<svg version="1.1" id="Layer_1" xmlns="http://www.w3.org/2000/svg" xmlns:xlink="http://www.w3.org/1999/xlink" x="0px" y="0px"
	 width="100%" viewBox="0 0 496 368" enable-background="new 0 0 496 368" xml:space="preserve">
<path fill="#000000" opacity="1.000000" stroke="none" 
	d="
M400.298828,203.031952 
	C403.656830,224.561050 404.973999,245.790421 404.235321,267.131012 
	C404.092194,271.266785 403.584900,275.442596 402.726898,279.489990 
	C400.927124,287.980194 398.969635,289.552216 390.271027,290.176392 
	C384.458923,290.593475 378.639130,290.989349 372.816040,291.151367 
	C356.331482,291.609985 339.842102,291.893829 323.356995,292.335175 
	C268.541748,293.802826 213.714890,293.588654 158.895447,293.048615 
	C137.935684,292.842163 116.942940,292.304749 96.032143,290.306915 
	C86.223953,289.369812 83.652740,286.991364 82.792511,276.022400 
	C81.434715,258.708679 82.983452,241.467026 84.227707,224.199356 
	C85.291008,209.442825 88.641220,194.943649 88.826355,180.111313 
	C88.876732,176.074875 90.426437,172.840866 93.257339,169.885864 
	C96.665756,166.328003 101.336578,163.814804 102.972664,158.700684 
	C104.488075,153.963791 106.882263,149.625397 109.905441,144.661880 
	C104.079483,145.174332 99.048256,144.970642 94.144043,143.400604 
	C87.545403,141.288116 84.583557,137.525009 84.703171,131.055038 
	C84.795464,126.063133 87.845238,122.634041 94.061699,120.869797 
	C96.280884,120.239990 98.614021,119.795212 100.913071,119.700348 
	C111.487259,119.264038 112.454903,120.193985 113.274513,130.861359 
	C113.381020,132.247559 113.381020,132.247559 115.208710,134.948853 
	C117.258621,133.267792 117.810646,130.843414 118.682091,128.616196 
	C124.293213,114.275414 131.804993,100.987907 140.434174,88.246742 
	C146.767517,78.895454 156.260483,76.820854 166.388840,75.740990 
	C184.440887,73.816330 202.550507,73.036888 220.697571,72.599022 
	C237.356522,72.197052 253.994736,72.123337 270.652618,72.617012 
	C285.140228,73.046364 299.566193,74.010094 313.935791,75.871292 
	C321.991486,76.914688 328.197571,81.248489 333.377930,87.147888 
	C344.145416,99.409958 351.950897,113.524155 358.681580,128.287140 
	C359.421112,129.909225 359.738525,131.828888 361.619232,132.814392 
	C364.064056,131.769028 364.168701,129.637878 364.255890,127.421822 
	C364.510223,120.959030 367.394226,117.983253 373.780823,117.736328 
	C379.028503,117.533432 384.056213,118.825821 388.823486,120.841087 
	C393.471130,122.805771 394.650360,126.824234 394.333740,131.561890 
	C394.007690,136.440598 391.668304,139.827591 387.011902,141.176010 
	C381.007080,142.914932 374.939636,144.595245 367.866089,143.004578 
	C374.749756,152.382065 380.904663,161.028915 389.838562,167.192459 
	C395.914215,171.384048 396.786469,178.136551 396.983612,184.547485 
	C397.176788,190.829346 398.789612,196.657608 400.298828,203.031952 
M304.613678,199.068207 
	C301.634613,202.575073 297.494019,204.133698 293.258514,204.891235 
	C281.219666,207.044479 269.057404,207.065765 256.951874,205.528320 
	C250.760422,204.742004 248.262436,201.322311 247.631760,195.101456 
	C247.112305,189.977539 247.826279,184.869476 247.699631,179.807770 
	C245.803177,179.126495 244.240585,178.922989 242.649139,180.262985 
	C243.052917,183.485718 243.597397,186.751495 243.849655,190.039688 
	C244.739182,201.634415 240.701172,206.148758 229.180084,206.313568 
	C220.851913,206.432709 212.512177,206.562042 204.192398,206.268082 
	C189.210831,205.738724 181.650131,198.263046 180.639252,183.439377 
	C180.526886,181.791443 180.799774,179.701630 178.498535,179.582489 
	C173.281906,179.312439 168.034744,179.044724 162.185913,179.782745 
	C165.303162,186.146881 168.146759,191.756912 170.810699,197.450989 
	C173.055252,202.248703 172.269684,203.213608 166.867996,202.933670 
	C162.214645,202.692474 157.555222,202.383942 152.899734,202.403549 
	C140.403137,202.456192 127.943428,202.007507 115.544998,200.345764 
	C106.564331,199.142120 102.489426,195.319687 100.172249,186.432846 
	C99.600754,184.241058 100.469337,181.721054 98.564293,179.580292 
	C94.276894,180.012177 91.805580,181.543945 91.943420,186.686234 
	C92.282166,199.324417 92.012489,211.968002 93.282600,224.587173 
	C94.662521,238.297501 95.744598,252.026947 98.026237,265.643585 
	C98.707512,269.709412 100.493286,270.643646 104.220848,270.947968 
	C123.332802,272.508331 142.501801,271.275940 161.635071,272.542358 
	C183.424927,273.984680 205.235672,271.537384 227.051193,271.689209 
	C279.017761,272.050903 330.972626,271.537506 382.911621,269.687866 
	C386.941681,269.544342 389.323151,268.407074 389.991943,263.881409 
	C393.868439,237.650101 396.002655,211.372177 394.003479,184.828445 
	C393.630554,179.876480 391.772156,177.961380 387.161255,178.068542 
	C385.889282,179.623993 386.379272,181.351425 386.380646,182.954163 
	C386.389893,193.756042 384.063202,196.625351 373.188599,198.442276 
	C356.072388,201.302017 338.696472,200.751694 321.469635,202.190796 
	C320.347595,202.284546 319.091858,202.305878 318.198792,200.603394 
	C320.013458,193.207901 324.902405,186.667480 327.182037,179.245026 
	C322.378815,179.245026 317.930389,179.257996 313.482117,179.240143 
	C310.833466,179.229523 310.127228,180.707352 310.164673,183.103607 
	C310.253632,188.800613 308.262390,193.855637 304.613678,199.068207 
M245.435150,176.644302 
	C247.093369,176.553619 248.839020,176.769424 250.396423,176.325241 
	C267.655945,171.402664 285.186523,173.244415 302.457245,175.231354 
	C320.025696,177.252548 337.366302,177.088974 354.377655,172.937714 
	C364.044189,170.578796 372.983765,170.421356 382.248199,173.648483 
	C385.355988,174.731049 388.552185,176.167542 392.461304,175.628677 
	C391.772095,174.323410 391.525085,173.209106 390.831055,172.638977 
	C381.524811,164.994019 374.073273,155.646469 366.093262,146.731491 
	C362.277588,142.468796 359.614624,138.000214 357.484833,133.006668 
	C351.374878,118.681152 343.707520,105.272583 334.333893,92.843895 
	C328.053925,84.517128 320.199951,79.330658 309.378876,78.130066 
	C303.007080,77.423103 296.830780,78.813354 290.534454,78.058174 
	C283.112122,77.167946 275.623016,76.564438 268.150848,76.407387 
	C237.334824,75.759727 206.559204,77.374092 175.765869,78.058693 
	C157.528625,78.464134 144.835480,84.425674 135.525482,100.760620 
	C125.410202,118.508484 119.788147,138.389603 107.907967,155.300369 
	C104.255066,160.500076 101.760956,166.464783 96.772423,170.849701 
	C94.799431,172.583923 91.772072,174.334213 92.872765,178.298096 
	C94.747360,177.720139 96.295013,177.096878 97.902939,176.771149 
	C107.722664,174.781921 117.124527,169.749603 127.634674,172.738159 
	C134.535812,174.700500 141.608734,176.003082 148.745087,176.316483 
	C160.049545,176.812973 171.576263,178.169830 182.640503,176.587082 
	C194.225037,174.929901 205.727448,174.123840 217.352722,173.691467 
	C226.592499,173.347809 235.475266,175.710159 245.435150,176.644302 
M332.130463,182.507797 
	C327.456543,187.567047 327.404022,192.457321 331.982513,196.280411 
	C335.990479,199.627106 342.739075,198.977524 345.884827,194.942276 
	C348.854858,191.132492 348.006592,185.025497 343.919769,182.014679 
	C340.249542,179.310791 336.457794,179.713150 332.130463,182.507797 
M159.419327,186.458725 
	C158.802200,184.846939 157.694687,183.610580 156.288895,182.683304 
	C152.725952,180.333206 149.084061,180.474792 145.522964,182.653610 
	C142.006943,184.804855 140.713852,188.063248 141.427612,192.044128 
	C142.158966,196.123138 144.903061,198.417587 148.783722,199.212646 
	C155.636169,200.616562 160.445038,195.218552 159.419327,186.458725 
M352.353821,190.867645 
	C350.289185,187.149261 350.722198,183.407944 352.560242,179.653748 
	C348.118164,184.800919 348.596619,190.023056 353.593506,194.309875 
	C357.238831,197.437195 364.817352,197.167191 368.247284,193.787796 
	C371.934631,190.154816 371.861755,183.304398 368.094086,179.380463 
	C370.781860,186.620560 369.842499,191.530212 365.237030,194.313461 
	C361.534698,196.550903 356.703461,195.478470 352.353821,190.867645 
M121.245293,194.130325 
	C117.607201,190.253204 118.358063,185.784790 120.009056,180.515976 
	C116.135033,186.327530 116.896889,192.174118 121.405396,195.795029 
	C125.045792,198.718719 132.485260,198.333939 135.670441,195.057251 
	C139.555603,191.060501 139.915436,185.204391 135.703140,180.017059 
	C138.728134,186.250656 138.713943,191.191940 133.834961,194.851135 
	C129.975403,197.745773 125.799187,197.492966 121.245293,194.130325 
z"/>
<path fill="#000000" opacity="1.000000" stroke="none" 
	d="
M287.044983,262.979614 
	C263.290649,264.706970 239.498703,264.422699 215.713943,264.179871 
	C201.784149,264.037659 191.604660,254.678635 187.819778,237.926727 
	C226.532394,237.404266 264.948334,237.696030 304.172394,237.611069 
	C300.412872,247.942230 296.360107,256.834381 287.196655,262.725281 
	C287.017822,262.991638 287.044983,262.979614 287.044983,262.979614 
z"/>
<path fill="#000000" opacity="1.000000" stroke="none" 
	d="
M157.588928,259.461884 
	C142.980545,259.140594 128.922897,257.724060 114.849205,256.457123 
	C111.169289,256.125824 110.321022,254.571579 110.929840,251.291733 
	C112.359688,243.588928 118.330269,238.192688 126.677635,237.840942 
	C138.143753,237.357742 149.626205,237.273254 161.099350,236.938477 
	C163.725067,236.861847 165.503326,237.684021 166.629868,240.197250 
	C168.874878,245.205688 171.251419,250.157959 173.687073,255.077255 
	C175.452988,258.643890 174.710358,260.519806 170.496597,260.292480 
	C166.347580,260.068665 162.202942,259.763947 157.588928,259.461884 
M119.820038,245.141983 
	C118.952568,248.947540 120.910454,251.342728 124.146667,252.480453 
	C126.929016,253.458618 129.875244,253.151611 131.656158,250.245071 
	C133.285950,247.585205 133.314774,244.832108 131.205841,242.369080 
	C128.224396,238.887024 123.328949,239.850159 119.820038,245.141983 
z"/>
<path fill="#000000" opacity="1.000000" stroke="none" 
	d="
M342.251617,258.374146 
	C334.674469,259.271362 327.528961,259.295166 320.376709,259.340759 
	C316.148224,259.367737 315.371063,257.696808 317.254547,254.148453 
	C318.422577,251.947968 319.418243,249.656235 320.499847,247.409561 
	C325.680145,236.649094 325.679535,236.512512 337.281403,236.371765 
	C346.255829,236.262894 355.238251,236.441818 364.211243,236.698547 
	C372.154968,236.925827 377.690063,242.396500 378.309357,250.123840 
	C378.548340,253.105713 377.604828,254.830185 374.419250,255.262985 
	C363.888672,256.693695 353.331238,257.806274 342.251617,258.374146 
M370.568207,243.873886 
	C369.521851,239.899368 366.720154,238.685776 362.986267,239.283630 
	C359.975403,239.765701 358.400726,241.722824 358.227814,244.771637 
	C358.039490,248.091385 359.786041,250.078278 362.770691,251.059937 
	C366.604431,252.320847 369.652252,249.784882 370.568207,243.873886 
z"/>
<path fill="#000000" opacity="1.000000" stroke="none" 
	d="
M287.006500,262.998962 
	C292.454102,263.625122 295.579956,259.995819 298.464691,256.359680 
	C303.567749,249.927429 306.760315,242.348312 310.623291,235.173782 
	C311.372498,233.782318 311.508057,231.906311 313.415771,231.198578 
	C314.549347,233.031097 313.259674,234.436264 312.591095,235.804764 
	C310.473816,240.138580 307.907928,244.272232 306.034760,248.702820 
	C299.648926,263.807037 287.279205,268.282471 272.205963,268.350189 
	C262.387939,268.394318 252.610123,269.726074 242.771439,269.333832 
	C232.466385,268.922974 222.157181,268.615448 211.852615,268.193481 
	C202.159302,267.796570 194.470688,263.699738 189.705078,255.132507 
	C185.585297,247.726288 181.917816,240.067871 178.089478,232.501175 
	C177.739731,231.809906 177.295151,230.979324 178.275970,229.921967 
	C180.328415,231.542694 180.992294,233.989456 181.972824,236.169739 
	C184.912491,242.706329 188.031693,249.133118 192.188873,255.009232 
	C197.146957,262.017365 203.776749,265.662750 212.474304,265.753906 
	C228.946121,265.926544 245.420380,266.650543 261.884521,266.438721 
	C270.105377,266.332977 278.484955,266.089539 286.767029,263.236572 
	C287.044983,262.979614 287.017822,262.991638 287.006500,262.998962 
z"/>
<path fill="#000000" opacity="1.000000" stroke="none" 
	d="
M115.239944,229.717560 
	C128.658295,227.786911 141.493149,229.805786 154.348907,231.208389 
	C155.110855,231.291519 156.042221,231.398193 156.561111,233.238220 
	C151.127060,232.764847 145.964737,232.426697 140.830551,231.841675 
	C133.200455,230.972229 125.561531,231.323196 117.930374,231.523575 
	C111.391342,231.695282 107.055290,234.935028 105.784279,241.853897 
	C104.446251,235.105286 107.102516,231.770248 115.239944,229.717560 
z"/>
<path fill="#000000" opacity="1.000000" stroke="none" 
	d="
M341.276367,229.813751 
	C350.947021,228.894455 360.145874,227.310730 369.489105,227.684280 
	C371.478943,227.763855 373.489105,227.804276 375.447266,228.123856 
	C382.760223,229.317368 385.085663,232.438934 384.801025,240.447235 
	C384.211426,240.744080 383.906281,240.369598 383.737305,239.917496 
	C380.190826,230.429413 380.194794,230.341034 369.974792,230.192810 
	C359.997437,230.048126 350.046478,230.536072 340.165436,232.074799 
	C338.721161,232.299713 337.211792,232.600830 335.426147,231.631226 
	C337.133118,230.219177 339.114990,230.347290 341.276367,229.813751 
z"/>
<path fill="#000000" opacity="1.000000" stroke="none" 
	d="
M156.349396,135.406616 
	C145.653427,136.825836 135.348419,135.947220 125.445541,136.906158 
	C123.964172,135.268616 124.534218,133.996033 125.034920,132.776718 
	C130.922348,118.439537 137.380142,104.392960 145.992126,91.432381 
	C147.843506,88.646149 150.113083,86.996056 153.614517,86.524590 
	C167.952774,84.593941 182.329651,83.319298 196.783798,82.609947 
	C218.916061,81.523796 241.055481,81.484184 263.195496,81.724121 
	C282.321075,81.931374 301.409760,82.944405 320.371429,85.713051 
	C323.612305,86.186249 325.940674,87.981392 327.836884,90.301201 
	C338.563965,103.424667 346.229370,118.368568 353.293549,133.653381 
	C353.476624,134.049515 353.316620,134.604218 353.316620,135.934097 
	C287.729492,132.568329 222.271133,131.960617 156.349396,135.406616 
z"/>
<path fill="#000000" opacity="1.000000" stroke="none" 
	d="
M248.973526,163.622894 
	C251.307587,164.466476 253.220612,165.474091 252.900284,167.869675 
	C252.599594,170.118256 250.579681,170.853989 248.613663,171.486923 
	C244.693405,172.748962 241.063171,172.294098 237.892426,169.638565 
	C236.635162,168.585587 236.225220,166.906784 237.495056,165.664734 
	C240.660126,162.568954 244.503632,162.280365 248.973526,163.622894 
z"/>
<path fill="#000000" opacity="1.000000" stroke="none" 
	d="
M150.036850,163.761749 
	C144.332718,158.095871 138.856323,152.672562 133.379929,147.249252 
	C133.747772,146.886917 134.115616,146.524567 134.483475,146.162231 
	C142.325607,151.118958 148.382477,157.895309 153.943909,165.661636 
	C151.675858,166.347656 151.271576,164.641205 150.036850,163.761749 
z"/>
<path fill="#000000" opacity="1.000000" stroke="none" 
	d="
M228.398834,162.267548 
	C228.893997,163.239471 229.214935,163.945053 229.535889,164.650635 
	C229.190552,164.896942 228.845230,165.143234 228.499893,165.389526 
	C223.033508,158.466843 217.567123,151.544159 212.100739,144.621475 
	C212.536240,144.253128 212.971756,143.884781 213.407257,143.516434 
	C218.959381,149.142090 223.577179,155.584595 228.398834,162.267548 
z"/>
<path fill="#000000" opacity="1.000000" stroke="none" 
	d="
M122.337914,163.582916 
	C122.953995,165.219635 124.330055,166.328308 122.998222,168.888718 
	C118.903328,162.757034 115.540115,156.998444 114.101021,150.288788 
	C114.468536,150.083054 114.836052,149.877304 115.203568,149.671555 
	C117.533051,154.200684 119.862541,158.729797 122.337914,163.582916 
z"/>
<path fill="#000000" opacity="1.000000" stroke="none" 
	d="
M269.127167,146.560120 
	C269.777405,145.429184 270.159821,144.481583 272.084686,143.971481 
	C269.740479,151.464218 266.364105,157.842621 262.531982,164.046371 
	C263.415405,157.833008 266.365082,152.405777 269.127167,146.560120 
z"/>
<path fill="#000000" opacity="1.000000" stroke="none" 
	d="
M336.599060,166.031952 
	C335.724243,166.998047 334.232666,167.759811 334.903687,166.031021 
	C337.435638,159.507843 341.471100,153.856400 345.632416,148.347702 
	C346.113770,148.654037 346.595123,148.960373 347.076447,149.266724 
	C343.642975,154.772858 340.209503,160.278992 336.599060,166.031952 
z"/>
<path fill="#000000" opacity="1.000000" stroke="none" 
	d="
M365.919281,152.449768 
	C367.486023,151.016251 367.803406,152.530518 367.834839,153.228409 
	C368.026154,157.480072 367.051453,161.463531 364.060638,164.957153 
	C364.651367,160.888397 365.242096,156.819656 365.919281,152.449768 
z"/>
<path fill="#000000" opacity="1.000000" stroke="none" 
	d="
M343.521454,184.651871 
	C345.544342,188.105804 345.981995,191.235886 343.286652,194.081436 
	C342.093567,195.341003 334.191864,195.131378 333.150848,193.843765 
	C330.718384,190.835022 331.202423,187.584030 333.125916,184.653839 
	C335.320312,181.310928 338.433319,181.067673 341.767700,183.051895 
	C342.324585,183.383286 342.765411,183.909668 343.521454,184.651871 
z"/>
<path fill="#000000" opacity="1.000000" stroke="none" 
	d="
M144.054565,190.785538 
	C144.496597,188.830215 144.756134,187.145157 145.511536,185.723572 
	C147.198303,182.549271 150.107559,181.997314 153.190826,183.153259 
	C156.892029,184.540863 157.653488,187.690964 157.334625,191.298508 
	C157.030014,194.744400 154.957733,195.236649 151.879837,195.507690 
	C147.993591,195.849960 144.947327,195.796585 144.054565,190.785538 
z"/>
</svg>