<?xml version="1.0" encoding="utf-8"?>
<!-- Generator: Adobe Illustrator 24.3.0, SVG Export Plug-In . SVG Version: 6.00 Build 0)  -->
<svg version="1.1" id="Layer_1" xmlns="http://www.w3.org/2000/svg" xmlns:xlink="http://www.w3.org/1999/xlink" x="0px" y="0px"
	 viewBox="0 0 300 300" style="enable-background:new 0 0 300 300;" xml:space="preserve">
<style type="text/css">
	.st0{fill:#8FB1DD;}
	.st1{fill:#0C0D0D;}
	.st2{fill:#A66844;}
	.st3{fill:#F2EA69;}
	.st4{fill:#A76744;}
	.st5{fill:#829877;}
	.st6{fill:#FBC6AC;}
	.st7{fill:#BFD968;}
	.st8{fill:#B661A5;}
	.st9{fill:#6DB6E5;}
	.st10{fill:#EFEA52;}
	.st11{fill:#F06075;}
	.st12{fill:#ED2330;}
	.st13{fill:#F06076;}
	.st14{fill:none;}
	.st15{fill:#FDF27F;}
	.st16{fill:#8DC540;}
	.st17{fill:#F79420;}
	.st18{fill:#51A6D7;}
	.st19{fill:#85348A;}
	.st20{fill:#5F3A16;}
	.st21{fill:#C93F8C;}
	.st22{fill:#C676AF;}
	.st23{fill:#7851A0;}
	.st24{fill:#070808;}
	.st25{fill:#4C6544;}
	.st26{fill:#060606;}
	.st27{fill:#F9F5B7;}
	.st28{fill:#0B0B0B;}
	.st29{fill:#A9CA98;}
	.st30{fill:#060907;}
	.st31{fill:#151515;}
	.st32{fill:#AECD9B;}
	.st33{fill:#101010;}
	.st34{fill:#7951A0;}
	.st35{fill:#67BE70;}
	.st36{fill:#F6DC18;}
	.st37{fill:#2EB8EB;}
	.st38{fill:#C34F9C;}
	.st39{fill:#F28923;}
	.st40{fill:#E02D29;}
	.st41{fill:#E3842B;}
	.st42{fill:#E52B2B;}
	.st43{fill:#9ED9DF;}
	.st44{fill:#F1E559;}
	.st45{fill:#B794C4;}
	.st46{fill:#DA4798;}
	.st47{fill:#3BB9EB;}
	.st48{fill:#5E5DA8;stroke:#231F20;stroke-miterlimit:10;}
	.st49{fill:#3C57A6;}
	.st50{fill:#3C57A6;stroke:#0C0D0D;stroke-width:1.3;stroke-miterlimit:10;}
	.st51{fill:#92BAE2;}
	.st52{fill:#3FC1CC;stroke:#0C0D0D;stroke-width:1.3;stroke-miterlimit:10;}
	.st53{fill:#107B96;}
	.st54{fill:#171141;}
	.st55{fill:#5E5DA8;}
	.st56{fill:#1B1C45;}
	.st57{fill:#0A0E14;}
	.st58{fill:#192851;}
	.st59{clip-path:url(#SVGID_2_);}
	.st60{fill:#EDEB77;}
	.st61{clip-path:url(#SVGID_4_);}
	.st62{fill:#F08730;}
	.st63{fill:#D94698;}
	.st64{fill:#90CDE8;}
	.st65{fill:#9F61A4;}
	.st66{clip-path:url(#SVGID_6_);}
	.st67{fill:#3FA0CC;}
	.st68{fill:#A996BF;}
	.st69{fill:#4EB589;}
	.st70{fill:#090B0C;}
	.st71{fill:#F16F87;}
	.st72{fill:#E78D44;}
	.st73{fill:#EDEB77;stroke:#231F20;stroke-width:0.75;stroke-miterlimit:10;}
	.st74{clip-path:url(#SVGID_8_);fill:#070906;stroke:#070906;stroke-miterlimit:10;}
	.st75{clip-path:url(#SVGID_8_);fill:#191F14;stroke:#070906;stroke-miterlimit:10;}
	.st76{clip-path:url(#SVGID_8_);fill:#293622;stroke:#070906;stroke-miterlimit:10;}
	.st77{clip-path:url(#SVGID_8_);fill:#3C442D;stroke:#070906;stroke-miterlimit:10;}
	.st78{clip-path:url(#SVGID_8_);fill:#4D573F;stroke:#070906;stroke-miterlimit:10;}
	.st79{clip-path:url(#SVGID_8_);fill:#646F57;stroke:#070906;stroke-miterlimit:10;}
	.st80{clip-path:url(#SVGID_8_);fill:#778267;stroke:#070906;stroke-miterlimit:10;}
	.st81{clip-path:url(#SVGID_8_);fill:#849876;stroke:#070906;stroke-miterlimit:10;}
	.st82{clip-path:url(#SVGID_8_);fill:#93AA80;stroke:#070906;stroke-miterlimit:10;}
	.st83{clip-path:url(#SVGID_8_);fill:#A2BC8C;stroke:#070906;stroke-miterlimit:10;}
	.st84{clip-path:url(#SVGID_8_);fill:#AED399;stroke:#070906;stroke-miterlimit:10;}
	.st85{clip-path:url(#SVGID_8_);fill:#C0DEA4;stroke:#070906;stroke-miterlimit:10;}
	.st86{clip-path:url(#SVGID_8_);fill:#CAE3AB;stroke:#070906;stroke-miterlimit:10;}
	.st87{fill:none;stroke:#070906;stroke-miterlimit:10;}
	.st88{fill:#090A0A;}
	.st89{fill:#A05B6B;}
	.st90{fill:#DE96A3;}
	.st91{fill:#0A0B0B;}
</style>
<g>
	<g>
		<g>
			<path class="st15" d="M133.37,268.11c0-3.8,3.09-6.9,6.9-6.9c1.32,0,2.56,0.38,3.62,1.03c1.21-1.78,2.39-3.55,3.53-5.27
				c0.39-0.59,0.77-1.18,1.15-1.77c1.18-1.83,2.39-3.72,3.81-5.44c1.42-1.73,4.38-5.33,7.52-4.27c2.44,0.83,2.97,3.51,3.4,5.67
				c0.06,0.29,0.11,0.58,0.17,0.84c0.7,3.19,1.9,6.26,3.1,9.11c3.88,9.19,10.86,20.93,22.14,24.68
				c10.76,3.58,23.71-1.85,28.28-11.86c1.59-3.47,2.25-7.37,1.91-11.26c-0.31-3.6-1.57-6.78-2.9-10.15
				c-0.19-0.49-0.39-0.97-0.58-1.46c-1.03-2.65-1.19-4.38-0.49-5.3c0.41-0.54,1.08-0.76,1.99-0.66c1.68,0.19,3.41,2.72,4.79,4.75
				c0.46,0.67,0.85,1.24,1.17,1.63c2.43,2.93,4.75,5.46,7.08,7.72c3.71,3.59,10.61,10.27,16.87,9.17h0
				c0.07-0.01,3.13-0.62,4.43-3.75c1.29-3.12,1.08-9.38-7.3-21.46c-0.71-1.03-7.38-6.68-13.27-11.67
				c-4.51-3.83-8.78-7.44-10.02-8.69c-3.03-3.03-27.36-14.69-29.53-14.69c-2.41,0-73.08,7.8-80.19,8.64l-0.13,0.02
				c-30.32,3.57-36.19,6.54-36.99,8c-2.17,3.94-18.26,20.78-20.09,22.68l-0.03,0.03c-0.76,0.9-2.04,5.99-2.52,7.91
				c-0.1,0.38-0.17,0.69-0.23,0.89c-1.22,4.59-1.99,8.39-2.41,11.97c-0.38,3.19-0.91,7.57,0.56,10.87c0.6,1.34,1.54,2.23,2.79,2.65
				c2.04,0.68,5.06,0.07,8.07-1.63c1.67-0.94,3.33-2.23,4.94-3.83c5.43-5.39,8.66-12.34,10.86-17.78c0.14-0.36,0.34-0.89,0.6-1.57
				c1.91-5.12,6.39-17.11,11.55-18.35c0.3-0.07,0.59-0.11,0.88-0.11c1.01,0,1.99,0.43,2.92,1.28c2.79,2.57,3.66,7.33,4.37,11.16
				c0.15,0.82,0.29,1.59,0.44,2.3c1.07,5.01,1.31,10.14,1.53,15.11c0.19,4.16,0.38,8.45,1.07,12.62c0.69,4.14,1.68,8.76,4.86,11.05
				c3.16,2.28,7.55,1.37,10.61-0.24c7.38-3.89,14.16-9.79,21.13-18.45C134.3,272.06,133.37,270.19,133.37,268.11z"/>
		</g>
	</g>
	<g>
		<g>
			<circle class="st16" cx="60.31" cy="262.57" r="5.06"/>
		</g>
		<g>
			<path d="M60.31,267.89c-2.93,0-5.32-2.39-5.32-5.32c0-2.93,2.39-5.32,5.32-5.32c2.93,0,5.32,2.39,5.32,5.32
				C65.63,265.5,63.24,267.89,60.31,267.89z M60.31,257.77c-2.64,0-4.8,2.15-4.8,4.8c0,2.64,2.15,4.8,4.8,4.8s4.8-2.15,4.8-4.8
				C65.11,259.92,62.95,257.77,60.31,257.77z"/>
		</g>
	</g>
	<g>
		<g>
			<circle class="st17" cx="55.59" cy="274.58" r="2.75"/>
		</g>
		<g>
			<path d="M55.59,277.51c-1.61,0-2.93-1.31-2.93-2.93c0-1.61,1.31-2.93,2.93-2.93s2.93,1.31,2.93,2.93
				C58.51,276.19,57.2,277.51,55.59,277.51z M55.59,272c-1.42,0-2.58,1.16-2.58,2.58c0,1.42,1.16,2.58,2.58,2.58
				c1.42,0,2.58-1.16,2.58-2.58C58.16,273.16,57.01,272,55.59,272z"/>
		</g>
	</g>
	<g>
		<g>
			<g>
				<circle class="st18" cx="70.4" cy="255.65" r="2.65"/>
			</g>
		</g>
		<g>
			<g>
				<path d="M70.4,258.56c-1.61,0-2.91-1.31-2.91-2.91c0-1.61,1.31-2.91,2.91-2.91s2.91,1.31,2.91,2.91
					C73.31,257.26,72,258.56,70.4,258.56z M70.4,253.26c-1.32,0-2.39,1.07-2.39,2.39s1.07,2.39,2.39,2.39s2.39-1.07,2.39-2.39
					S71.72,253.26,70.4,253.26z"/>
			</g>
		</g>
	</g>
	<g>
		<g>
			<g>
				<circle class="st16" cx="75.34" cy="247.58" r="1.98"/>
			</g>
		</g>
		<g>
			<g>
				<path d="M75.34,249.73c-1.19,0-2.15-0.97-2.15-2.15c0-1.19,0.97-2.15,2.15-2.15c1.19,0,2.15,0.97,2.15,2.15
					C77.49,248.76,76.53,249.73,75.34,249.73z M75.34,245.77c-1,0-1.81,0.81-1.81,1.81s0.81,1.81,1.81,1.81s1.81-0.81,1.81-1.81
					S76.33,245.77,75.34,245.77z"/>
			</g>
		</g>
	</g>
	<g>
		<g>
			<g>
				<circle class="st16" cx="93.98" cy="234.84" r="2.88"/>
			</g>
		</g>
		<g>
			<g>
				<path d="M93.98,237.99c-1.73,0-3.14-1.41-3.14-3.14s1.41-3.14,3.14-3.14c1.73,0,3.14,1.41,3.14,3.14S95.72,237.99,93.98,237.99z
					 M93.98,232.23c-1.44,0-2.62,1.17-2.62,2.62s1.17,2.62,2.62,2.62s2.62-1.17,2.62-2.62S95.43,232.23,93.98,232.23z"/>
			</g>
		</g>
	</g>
	<g>
		<g>
			<g>
				<circle class="st19" cx="81.96" cy="238.48" r="2.67"/>
			</g>
		</g>
		<g>
			<g>
				<path d="M81.96,241.33c-1.57,0-2.85-1.28-2.85-2.85c0-1.57,1.28-2.85,2.85-2.85c1.57,0,2.85,1.28,2.85,2.85
					C84.81,240.05,83.53,241.33,81.96,241.33z M81.96,235.98c-1.38,0-2.5,1.12-2.5,2.5c0,1.38,1.12,2.5,2.5,2.5s2.5-1.12,2.5-2.5
					C84.46,237.1,83.34,235.98,81.96,235.98z"/>
			</g>
		</g>
	</g>
	<g>
		<g>
			<g>
				<circle class="st19" cx="98.7" cy="244.19" r="2.07"/>
			</g>
		</g>
		<g>
			<g>
				<path d="M98.7,246.44c-1.24,0-2.25-1.01-2.25-2.25s1.01-2.25,2.25-2.25c1.24,0,2.25,1.01,2.25,2.25S99.94,246.44,98.7,246.44z
					 M98.7,242.29c-1.05,0-1.9,0.85-1.9,1.9s0.85,1.9,1.9,1.9s1.9-0.85,1.9-1.9S99.75,242.29,98.7,242.29z"/>
			</g>
		</g>
	</g>
	<g>
		<g>
			<circle class="st20" cx="99.1" cy="251.64" r="3.03"/>
		</g>
		<g>
			<path d="M99.1,254.84c-1.76,0-3.2-1.44-3.2-3.2c0-1.76,1.44-3.2,3.2-3.2c1.76,0,3.2,1.44,3.2,3.2
				C102.3,253.4,100.87,254.84,99.1,254.84z M99.1,248.79c-1.57,0-2.85,1.28-2.85,2.85c0,1.57,1.28,2.85,2.85,2.85
				c1.57,0,2.85-1.28,2.85-2.85C101.95,250.07,100.67,248.79,99.1,248.79z"/>
		</g>
	</g>
	<g>
		<g>
			<g>
				<circle class="st16" cx="102.53" cy="257.22" r="1.84"/>
			</g>
		</g>
		<g>
			<g>
				<path d="M102.53,259.23c-1.11,0-2.01-0.9-2.01-2.01c0-1.11,0.9-2.01,2.01-2.01c1.11,0,2.01,0.9,2.01,2.01
					C104.54,258.33,103.64,259.23,102.53,259.23z M102.53,255.55c-0.92,0-1.66,0.75-1.66,1.66c0,0.92,0.75,1.66,1.66,1.66
					c0.92,0,1.66-0.75,1.66-1.66C104.19,256.3,103.44,255.55,102.53,255.55z"/>
			</g>
		</g>
	</g>
	<g>
		<g>
			<g>
				<circle class="st21" cx="102.23" cy="266.42" r="3.71"/>
			</g>
		</g>
		<g>
			<g>
				<path d="M102.23,270.31c-2.14,0-3.89-1.74-3.89-3.89c0-2.14,1.74-3.89,3.89-3.89c2.14,0,3.89,1.74,3.89,3.89
					C106.12,268.56,104.37,270.31,102.23,270.31z M102.23,262.88c-1.95,0-3.54,1.59-3.54,3.54s1.59,3.54,3.54,3.54
					s3.54-1.59,3.54-3.54S104.18,262.88,102.23,262.88z"/>
			</g>
		</g>
	</g>
	<g>
		<g>
			<g>
				<circle class="st17" cx="105.39" cy="274.96" r="1.78"/>
			</g>
		</g>
		<g>
			<g>
				<path d="M105.39,276.92c-1.08,0-1.96-0.88-1.96-1.96s0.88-1.96,1.96-1.96c1.08,0,1.96,0.88,1.96,1.96
					S106.47,276.92,105.39,276.92z M105.39,273.36c-0.89,0-1.61,0.72-1.61,1.61c0,0.89,0.72,1.61,1.61,1.61
					c0.89,0,1.61-0.72,1.61-1.61C107,274.08,106.28,273.36,105.39,273.36z"/>
			</g>
		</g>
	</g>
	<g>
		<g>
			<circle class="st20" cx="120.78" cy="280.72" r="1.78"/>
		</g>
		<g>
			<path d="M120.78,282.68c-1.08,0-1.96-0.88-1.96-1.96s0.88-1.96,1.96-1.96c1.08,0,1.96,0.88,1.96,1.96
				S121.86,282.68,120.78,282.68z M120.78,279.11c-0.89,0-1.61,0.72-1.61,1.61c0,0.89,0.72,1.61,1.61,1.61
				c0.89,0,1.61-0.72,1.61-1.61C122.39,279.83,121.67,279.11,120.78,279.11z"/>
		</g>
	</g>
	<g>
		<g>
			<g>
				<circle class="st18" cx="108.38" cy="285.71" r="7.41"/>
			</g>
		</g>
		<g>
			<g>
				<path d="M108.38,293.38c-4.23,0-7.67-3.44-7.67-7.67c0-4.23,3.44-7.67,7.67-7.67c4.23,0,7.67,3.44,7.67,7.67
					C116.05,289.94,112.61,293.38,108.38,293.38z M108.38,278.56c-3.94,0-7.14,3.21-7.14,7.14c0,3.94,3.21,7.14,7.14,7.14
					c3.94,0,7.14-3.21,7.14-7.14C115.53,281.77,112.32,278.56,108.38,278.56z"/>
			</g>
		</g>
	</g>
	<g>
		<g>
			<g>
				<circle class="st18" cx="127.76" cy="276.01" r="2.25"/>
			</g>
		</g>
		<g>
			<g>
				<path d="M127.76,278.52c-1.38,0-2.51-1.13-2.51-2.51c0-1.38,1.13-2.51,2.51-2.51s2.51,1.13,2.51,2.51
					C130.27,277.39,129.14,278.52,127.76,278.52z M127.76,274.03c-1.09,0-1.98,0.89-1.98,1.98c0,1.09,0.89,1.98,1.98,1.98
					c1.09,0,1.98-0.89,1.98-1.98C129.74,274.92,128.85,274.03,127.76,274.03z"/>
			</g>
		</g>
	</g>
	<g>
		<g>
			<circle class="st20" cx="145.13" cy="254.83" r="1.82"/>
		</g>
		<g>
			<path d="M145.13,256.83c-1.1,0-2-0.9-2-2c0-1.1,0.9-2,2-2c1.1,0,2,0.9,2,2C147.13,255.93,146.23,256.83,145.13,256.83z
				 M145.13,253.18c-0.91,0-1.65,0.74-1.65,1.65c0,0.91,0.74,1.65,1.65,1.65c0.91,0,1.65-0.74,1.65-1.65
				C146.78,253.92,146.04,253.18,145.13,253.18z"/>
		</g>
	</g>
	<g>
		<g>
			<g>
				<circle class="st21" cx="150.11" cy="246.25" r="3.2"/>
			</g>
		</g>
		<g>
			<g>
				<path d="M150.11,249.63c-1.86,0-3.37-1.51-3.37-3.37c0-1.86,1.51-3.37,3.37-3.37c1.86,0,3.37,1.51,3.37,3.37
					C153.48,248.11,151.97,249.63,150.11,249.63z M150.11,243.23c-1.67,0-3.02,1.36-3.02,3.02s1.36,3.02,3.02,3.02
					c1.67,0,3.02-1.36,3.02-3.02S151.77,243.23,150.11,243.23z"/>
			</g>
		</g>
	</g>
	<g>
		<g>
			<circle class="st20" cx="157.15" cy="237.06" r="2.42"/>
		</g>
		<g>
			<path d="M157.15,239.65c-1.43,0-2.59-1.16-2.59-2.59s1.16-2.59,2.59-2.59s2.59,1.16,2.59,2.59S158.58,239.65,157.15,239.65z
				 M157.15,234.81c-1.24,0-2.24,1.01-2.24,2.24c0,1.24,1.01,2.24,2.24,2.24c1.24,0,2.24-1.01,2.24-2.24
				C159.39,235.82,158.38,234.81,157.15,234.81z"/>
		</g>
	</g>
	<g>
		<g>
			<g>
				<circle class="st18" cx="164.48" cy="244.19" r="2.07"/>
			</g>
		</g>
		<g>
			<g>
				<path d="M164.48,246.44c-1.24,0-2.25-1.01-2.25-2.25s1.01-2.25,2.25-2.25c1.24,0,2.25,1.01,2.25,2.25
					S165.72,246.44,164.48,246.44z M164.48,242.29c-1.05,0-1.9,0.85-1.9,1.9s0.85,1.9,1.9,1.9c1.05,0,1.9-0.85,1.9-1.9
					S165.53,242.29,164.48,242.29z"/>
			</g>
		</g>
	</g>
	<g>
		<g>
			<g>
				<circle class="st16" cx="171.2" cy="260.83" r="2.07"/>
			</g>
		</g>
		<g>
			<g>
				<path d="M171.2,263.16c-1.28,0-2.33-1.04-2.33-2.33s1.04-2.33,2.33-2.33c1.28,0,2.33,1.04,2.33,2.33S172.48,263.16,171.2,263.16
					z M171.2,259.03c-0.99,0-1.8,0.81-1.8,1.8s0.81,1.8,1.8,1.8s1.8-0.81,1.8-1.8S172.19,259.03,171.2,259.03z"/>
			</g>
		</g>
	</g>
	<g>
		<g>
			<g>
				<circle class="st17" cx="178.63" cy="269.17" r="2.09"/>
			</g>
		</g>
		<g>
			<g>
				<path d="M178.63,271.44c-1.25,0-2.26-1.02-2.26-2.26c0-1.25,1.02-2.26,2.26-2.26c1.25,0,2.26,1.02,2.26,2.26
					C180.89,270.42,179.88,271.44,178.63,271.44z M178.63,267.26c-1.06,0-1.91,0.86-1.91,1.91s0.86,1.91,1.91,1.91
					c1.06,0,1.91-0.86,1.91-1.91S179.68,267.26,178.63,267.26z"/>
			</g>
		</g>
	</g>
	<g>
		<g>
			<circle class="st20" cx="178.44" cy="274.19" r="1.39"/>
		</g>
		<g>
			<path d="M178.44,275.76c-0.86,0-1.56-0.7-1.56-1.56c0-0.86,0.7-1.56,1.56-1.56s1.56,0.7,1.56,1.56
				C180,275.06,179.3,275.76,178.44,275.76z M178.44,272.98c-0.67,0-1.21,0.54-1.21,1.21c0,0.67,0.54,1.21,1.21,1.21
				s1.21-0.54,1.21-1.21C179.66,273.52,179.11,272.98,178.44,272.98z"/>
		</g>
	</g>
	<g>
		<g>
			<g>
				<circle class="st16" cx="186.8" cy="277.76" r="4.61"/>
			</g>
		</g>
		<g>
			<g>
				<path d="M186.8,282.63c-2.68,0-4.87-2.18-4.87-4.87c0-2.69,2.18-4.87,4.87-4.87c2.68,0,4.87,2.18,4.87,4.87
					C191.67,280.45,189.49,282.63,186.8,282.63z M186.8,273.42c-2.4,0-4.35,1.95-4.35,4.35c0,2.4,1.95,4.35,4.35,4.35
					c2.4,0,4.35-1.95,4.35-4.35C191.15,275.37,189.2,273.42,186.8,273.42z"/>
			</g>
		</g>
	</g>
	<g>
		<g>
			<g>
				<circle class="st18" cx="195.47" cy="281.55" r="1.85"/>
			</g>
		</g>
		<g>
			<g>
				<path d="M195.47,283.66c-1.17,0-2.11-0.95-2.11-2.11c0-1.17,0.95-2.11,2.11-2.11s2.11,0.95,2.11,2.11
					C197.58,282.71,196.63,283.66,195.47,283.66z M195.47,279.96c-0.88,0-1.59,0.71-1.59,1.59s0.71,1.59,1.59,1.59
					s1.59-0.71,1.59-1.59S196.34,279.96,195.47,279.96z"/>
			</g>
		</g>
	</g>
	<g>
		<g>
			<g>
				<circle class="st21" cx="205.68" cy="278.13" r="6.1"/>
			</g>
		</g>
		<g>
			<g>
				<path d="M205.68,284.49c-3.51,0-6.36-2.85-6.36-6.36c0-3.51,2.85-6.36,6.36-6.36c3.51,0,6.36,2.85,6.36,6.36
					C212.03,281.63,209.18,284.49,205.68,284.49z M205.68,272.29c-3.22,0-5.83,2.62-5.83,5.83c0,3.22,2.62,5.83,5.83,5.83
					c3.22,0,5.83-2.62,5.83-5.83C211.51,274.91,208.89,272.29,205.68,272.29z"/>
			</g>
		</g>
	</g>
	<g>
		<g>
			<g>
				<circle class="st17" cx="213.8" cy="266.97" r="3.34"/>
			</g>
		</g>
		<g>
			<g>
				<path d="M213.8,270.48c-1.94,0-3.52-1.58-3.52-3.52c0-1.94,1.58-3.52,3.52-3.52s3.52,1.58,3.52,3.52
					C217.32,268.91,215.74,270.48,213.8,270.48z M213.8,263.8c-1.75,0-3.17,1.42-3.17,3.17s1.42,3.17,3.17,3.17
					c1.75,0,3.17-1.42,3.17-3.17S215.55,263.8,213.8,263.8z"/>
			</g>
		</g>
	</g>
	<g>
		<g>
			<g>
				<circle class="st19" cx="211.93" cy="257.53" r="2.52"/>
			</g>
		</g>
		<g>
			<g>
				<path d="M211.93,260.22c-1.49,0-2.69-1.21-2.69-2.69c0-1.49,1.21-2.7,2.69-2.7c1.49,0,2.69,1.21,2.69,2.7
					C214.62,259.01,213.41,260.22,211.93,260.22z M211.93,255.18c-1.29,0-2.35,1.05-2.35,2.35c0,1.29,1.05,2.35,2.35,2.35
					c1.29,0,2.35-1.05,2.35-2.35C214.27,256.23,213.22,255.18,211.93,255.18z"/>
			</g>
		</g>
	</g>
	<g>
		<g>
			<g>
				<circle class="st18" cx="211" cy="247.5" r="3.19"/>
			</g>
		</g>
		<g>
			<g>
				<path d="M211,250.86c-1.85,0-3.36-1.51-3.36-3.36c0-1.85,1.51-3.36,3.36-3.36s3.36,1.51,3.36,3.36
					C214.36,249.35,212.85,250.86,211,250.86z M211,244.48c-1.66,0-3.01,1.35-3.01,3.01c0,1.66,1.35,3.01,3.01,3.01
					c1.66,0,3.01-1.35,3.01-3.01C214.01,245.84,212.66,244.48,211,244.48z"/>
			</g>
		</g>
	</g>
	<g>
		<g>
			<circle class="st20" cx="207.39" cy="238.1" r="2.01"/>
		</g>
		<g>
			<path d="M207.39,240.29c-1.21,0-2.19-0.98-2.19-2.19c0-1.21,0.98-2.19,2.19-2.19c1.21,0,2.19,0.98,2.19,2.19
				C209.58,239.31,208.6,240.29,207.39,240.29z M207.39,236.27c-1.01,0-1.84,0.82-1.84,1.84c0,1.01,0.82,1.84,1.84,1.84
				c1.01,0,1.84-0.82,1.84-1.84C209.23,237.09,208.41,236.27,207.39,236.27z"/>
		</g>
	</g>
	<g>
		<g>
			<g>
				<circle class="st18" cx="218.57" cy="236.13" r="5.23"/>
			</g>
		</g>
		<g>
			<g>
				<path d="M218.57,241.62c-3.03,0-5.49-2.46-5.49-5.49s2.46-5.49,5.49-5.49s5.49,2.46,5.49,5.49S221.6,241.62,218.57,241.62z
					 M218.57,231.17c-2.74,0-4.96,2.23-4.96,4.96s2.23,4.96,4.96,4.96s4.96-2.23,4.96-4.96S221.31,231.17,218.57,231.17z"/>
			</g>
		</g>
	</g>
	<g>
		<g>
			<circle class="st20" cx="227.14" cy="249.44" r="2.07"/>
		</g>
		<g>
			<path d="M227.14,251.68c-1.24,0-2.24-1.01-2.24-2.24c0-1.24,1.01-2.24,2.24-2.24c1.24,0,2.24,1.01,2.24,2.24
				C229.38,250.68,228.38,251.68,227.14,251.68z M227.14,247.55c-1.04,0-1.89,0.85-1.89,1.89c0,1.04,0.85,1.89,1.89,1.89
				c1.04,0,1.89-0.85,1.89-1.89C229.03,248.4,228.19,247.55,227.14,247.55z"/>
		</g>
	</g>
	<g>
		<g>
			<g>
				<circle class="st18" cx="236.62" cy="255.16" r="2.37"/>
			</g>
		</g>
		<g>
			<g>
				<path d="M236.62,257.79c-1.45,0-2.63-1.18-2.63-2.63s1.18-2.63,2.63-2.63c1.45,0,2.63,1.18,2.63,2.63
					S238.06,257.79,236.62,257.79z M236.62,253.06c-1.16,0-2.1,0.94-2.1,2.1c0,1.16,0.94,2.1,2.1,2.1c1.16,0,2.1-0.94,2.1-2.1
					C238.72,254,237.78,253.06,236.62,253.06z"/>
			</g>
		</g>
	</g>
	<g>
		<g>
			<g>
				<circle class="st16" cx="245.46" cy="252.74" r="1.75"/>
			</g>
		</g>
		<g>
			<g>
				<path d="M245.46,254.76c-1.11,0-2.01-0.9-2.01-2.01c0-1.11,0.9-2.01,2.01-2.01c1.11,0,2.01,0.9,2.01,2.01
					C247.47,253.85,246.57,254.76,245.46,254.76z M245.46,251.26c-0.82,0-1.49,0.67-1.49,1.49c0,0.82,0.67,1.49,1.49,1.49
					c0.82,0,1.49-0.67,1.49-1.49C246.95,251.92,246.28,251.26,245.46,251.26z"/>
			</g>
		</g>
	</g>
	<g>
		<g>
			<g>
				<circle class="st17" cx="244.54" cy="260.25" r="4.42"/>
			</g>
		</g>
		<g>
			<g>
				<path d="M244.54,264.94c-2.58,0-4.69-2.1-4.69-4.69s2.1-4.69,4.69-4.69c2.58,0,4.69,2.1,4.69,4.69S247.12,264.94,244.54,264.94z
					 M244.54,256.09c-2.29,0-4.16,1.87-4.16,4.16c0,2.29,1.87,4.16,4.16,4.16c2.29,0,4.16-1.87,4.16-4.16
					C248.7,257.96,246.83,256.09,244.54,256.09z"/>
			</g>
		</g>
	</g>
	<g>
		<g>
			<path class="st14" d="M140.06,261.01c0.73,0,1.44,0.12,2.1,0.33c0.64,0.15,1.26,0.39,1.84,0.72c1.17-1.72,2.3-3.42,3.4-5.08
				c0.39-0.59,0.77-1.18,1.15-1.77c1.18-1.83,2.39-3.72,3.81-5.44c1.42-1.73,4.38-5.33,7.52-4.27c2.44,0.83,2.97,3.51,3.4,5.67
				c0.06,0.29,0.11,0.58,0.17,0.84c0.7,3.19,1.9,6.26,3.1,9.11c3.88,9.19,10.86,20.93,22.14,24.68
				c10.76,3.58,23.71-1.85,28.28-11.86c1.59-3.47,2.25-7.37,1.91-11.26c-0.31-3.6-1.57-6.78-2.9-10.15
				c-0.19-0.49-0.39-0.97-0.58-1.46c-1.03-2.65-1.19-4.38-0.49-5.3c0.41-0.54,1.08-0.76,1.99-0.66c1.68,0.19,3.41,2.72,4.79,4.75
				c0.46,0.67,0.85,1.24,1.17,1.63c2.43,2.93,4.75,5.46,7.08,7.72c3.71,3.59,10.61,10.27,16.87,9.17h0
				c0.07-0.01,3.13-0.62,4.43-3.75c1.29-3.12,1.08-9.38-7.3-21.46c-0.71-1.03-7.38-6.68-13.27-11.67
				c-4.51-3.83-8.78-7.44-10.02-8.69c-3.03-3.03-27.36-14.69-29.53-14.69c-2.41,0-73.08,7.8-80.19,8.64l-0.13,0.02
				c-30.32,3.57-36.19,6.54-36.99,8c-2.17,3.94-18.26,20.78-20.09,22.68l-0.03,0.03c-0.76,0.9-2.04,5.99-2.52,7.91
				c-0.1,0.38-0.17,0.69-0.23,0.89c-1.22,4.59-1.99,8.39-2.41,11.97c-0.38,3.19-0.91,7.57,0.56,10.87c0.6,1.34,1.54,2.23,2.79,2.65
				c2.04,0.68,5.06,0.07,8.07-1.63c1.67-0.94,3.33-2.23,4.94-3.83c5.43-5.39,8.66-12.34,10.86-17.78c0.14-0.36,0.34-0.89,0.6-1.57
				c1.91-5.12,6.39-17.11,11.55-18.35c0.3-0.07,0.59-0.11,0.88-0.11c1.01,0,1.99,0.43,2.92,1.28c2.79,2.57,3.66,7.33,4.37,11.16
				c0.15,0.82,0.29,1.59,0.44,2.3c1.07,5.01,1.31,10.14,1.53,15.11c0.19,4.16,0.38,8.45,1.07,12.62c0.69,4.14,1.68,8.76,4.86,11.05
				c3.16,2.28,7.55,1.37,10.61-0.24c7.3-3.84,14.01-9.67,20.91-18.17c-1.15-1.09-1.9-2.51-2.16-4.06c-0.13-0.53-0.21-1.08-0.21-1.64
				C133.17,264.09,136.26,261.01,140.06,261.01z"/>
		</g>
	</g>
	<g>
		<g>
			<g>
				<path class="st17" d="M140.5,261.14c0.57,0,1.12,0.07,1.66,0.2c-0.66-0.21-1.37-0.33-2.1-0.33c-3.8,0-6.89,3.08-6.89,6.89
					c0,0.57,0.08,1.12,0.21,1.64c-0.06-0.39-0.11-0.78-0.11-1.18C133.27,264.38,136.52,261.14,140.5,261.14z"/>
			</g>
		</g>
		<g>
			<g>
				<path d="M133.13,269.6c-0.14-0.58-0.21-1.15-0.21-1.71c0-3.94,3.21-7.15,7.15-7.15c0.74,0,1.47,0.11,2.18,0.34l-0.14,0.5
					c-0.53-0.13-1.07-0.19-1.6-0.19c-3.84,0-6.97,3.13-6.97,6.97c0,0.35,0.03,0.72,0.1,1.13L133.13,269.6z"/>
			</g>
		</g>
	</g>
	<g>
		<g>
			<g>
				<path class="st17" d="M140.5,261.14c-3.99,0-7.23,3.24-7.23,7.23c0,0.4,0.04,0.79,0.11,1.18c0.44,1.79,1.57,3.3,3.1,4.23
					l0.32-0.87c0,0,3.6-4.89,5.92-7.63l1.7-2.71c-0.7-0.61-1.34-0.93-2.24-1.22C141.62,261.21,141.07,261.14,140.5,261.14z"/>
			</g>
		</g>
	</g>
	<g>
		<g>
			<path d="M244.66,242.64c-0.78-1.12-7.2-6.57-13.42-11.83c-4.5-3.81-8.75-7.42-9.97-8.64c-2.79-2.79-27.3-14.94-30.14-14.94
				c-2.53,0-73.04,7.79-80.29,8.64l-0.13,0.02c-23.74,2.79-36.06,5.55-37.64,8.43c-2.12,3.85-18.14,20.61-19.96,22.5
				c-0.03,0.03-0.05,0.05-0.05,0.05c-0.78,0.91-1.77,4.51-2.71,8.27c-0.1,0.38-0.17,0.68-0.22,0.88c-1.23,4.63-2,8.47-2.44,12.09
				c-0.4,3.29-0.94,7.8,0.63,11.32c0.7,1.57,1.81,2.62,3.3,3.11c3.27,1.08,7.22-0.83,8.76-1.7c1.73-0.98,3.46-2.31,5.12-3.97
				c5.54-5.5,8.82-12.55,11.05-18.07c0.15-0.37,0.35-0.91,0.61-1.59c1.7-4.56,6.23-16.69,10.95-17.81c1.05-0.25,2.04,0.07,3.02,0.97
				c2.58,2.37,3.42,6.98,4.1,10.68c0.15,0.82,0.29,1.6,0.45,2.32c1.06,4.94,1.29,10.04,1.51,14.97c0.19,4.18,0.39,8.5,1.08,12.72
				c0.71,4.31,1.76,9.12,5.21,11.6c1.52,1.09,3.27,1.53,5.04,1.53c2.29,0,4.61-0.73,6.46-1.71c6.21-3.27,11.99-7.95,17.81-14.44
				l0.12-0.16c0,0.01,0,0.02,0,0.02c0.49-0.57,0.97-1.14,1.46-1.72c1.07-1.26,2.14-2.5,3.14-3.81c0.9-1.17,1.79-2.34,2.67-3.51
				c0.88-1.18,1.76-2.37,2.62-3.57l1.77-2.64l1.24-1.85c0.78-1.15,1.54-2.3,2.28-3.43c0.39-0.59,0.77-1.18,1.15-1.77
				c1.16-1.81,2.37-3.67,3.75-5.36c1.3-1.58,4.01-4.87,6.58-4c1.97,0.67,2.43,2.98,2.83,5.03c0.06,0.3,0.12,0.59,0.18,0.86
				c0.71,3.26,1.93,6.38,3.15,9.26c3.94,9.35,11.08,21.31,22.66,25.16c5.38,1.79,11.41,1.52,16.97-0.77
				c5.64-2.32,10.03-6.42,12.36-11.54c1.65-3.61,2.33-7.65,1.99-11.69c-0.32-3.73-1.6-6.96-2.96-10.39
				c-0.19-0.48-0.38-0.97-0.57-1.46c-1.12-2.88-0.95-4.02-0.61-4.47c0.22-0.29,0.62-0.4,1.22-0.33c1.29,0.15,3.03,2.69,4.18,4.38
				c0.47,0.68,0.87,1.27,1.21,1.69c2.45,2.96,4.79,5.51,7.15,7.79c3.52,3.41,9.85,9.53,16.06,9.53c0.52,0,1.04-0.04,1.55-0.13
				c0.34-0.06,3.46-0.73,4.97-4.01C254.13,260.36,251.69,252.78,244.66,242.64z M142.31,264.96c-2.2,3.09-5.8,7.75-5.82,7.78
				l-0.14,0.17c-1.18-0.86-2.01-2.1-2.36-3.52c-0.06-0.38-0.09-0.73-0.09-1.05c0-3.64,2.96-6.6,6.6-6.6c0.49,0,1,0.06,1.49,0.18
				c0.63,0.2,1.22,0.51,1.76,0.91L142.31,264.96z M251.25,264.59c-1.3,3.13-4.36,3.74-4.43,3.75h0c-6.25,1.1-13.16-5.58-16.87-9.17
				c-2.34-2.26-4.65-4.78-7.08-7.72c-0.32-0.38-0.71-0.96-1.17-1.63c-1.39-2.03-3.11-4.56-4.79-4.75c-0.91-0.1-1.58,0.12-1.99,0.66
				c-0.7,0.91-0.54,2.65,0.49,5.3c0.19,0.49,0.38,0.98,0.58,1.46c1.33,3.37,2.6,6.55,2.9,10.15c0.33,3.9-0.33,7.79-1.91,11.26
				c-4.57,10.01-17.52,15.44-28.28,11.86c-11.28-3.76-18.27-15.5-22.14-24.68c-1.2-2.84-2.4-5.91-3.1-9.11
				c-0.06-0.27-0.11-0.55-0.17-0.84c-0.43-2.16-0.95-4.85-3.4-5.67c-3.14-1.06-6.09,2.54-7.52,4.27c-1.42,1.73-2.64,3.61-3.81,5.44
				c-0.38,0.59-0.76,1.18-1.15,1.77c-1.02,1.54-2.06,3.11-3.14,4.7c-0.59-0.4-1.19-0.78-1.89-1.01l-0.06,0.07
				c-0.6-0.14-1.21-0.22-1.81-0.22c-4.33,0-7.97,3.56-7.97,7.89c0,0.4,0.06,0.81,0.14,1.27l0.01,0.08c0.41,1.66,1.39,3.01,2.71,4.04
				c-6.85,8.4-13.52,14.18-20.76,17.99c-3.05,1.61-7.45,2.52-10.61,0.24c-3.18-2.29-4.18-6.9-4.86-11.05
				c-0.69-4.16-0.88-8.46-1.07-12.62c-0.23-4.97-0.46-10.11-1.53-15.11c-0.15-0.71-0.29-1.48-0.44-2.3
				c-0.7-3.83-1.58-8.59-4.37-11.16c-0.93-0.85-1.9-1.28-2.92-1.28c-0.29,0-0.59,0.04-0.88,0.11c-5.16,1.23-9.64,13.23-11.55,18.35
				c-0.25,0.68-0.45,1.21-0.6,1.57c-2.21,5.44-5.44,12.39-10.86,17.78c-1.61,1.6-3.27,2.89-4.94,3.83c-3.01,1.7-6.03,2.31-8.07,1.63
				c-1.25-0.41-2.19-1.3-2.79-2.65c-1.47-3.3-0.95-7.68-0.56-10.87c0.43-3.57,1.2-7.38,2.41-11.97c0.05-0.2,0.13-0.51,0.23-0.89
				c0.48-1.92,1.76-7.01,2.52-7.91l0.03-0.03c1.83-1.91,17.92-18.74,20.09-22.68c0.8-1.46,6.67-4.43,36.99-8l0.13-0.02
				c7.11-0.84,77.78-8.64,80.19-8.64c2.17,0,26.5,11.66,29.53,14.69c1.25,1.25,5.51,4.86,10.02,8.69
				c5.88,4.99,12.55,10.64,13.27,11.67C252.33,255.21,252.54,261.47,251.25,264.59z"/>
		</g>
	</g>
	<g>
		<g>
			<path class="st19" d="M83.75,141.87c-5.12,6.05-8.97,13.36-12.37,20.45c-6.01,12.53-10.55,25.74-13.94,39.21
				c-1.93,7.68-3.64,15.43-4.87,23.26c-1.16,7.36-2.74,15.54-1.47,22.96c0.31,1.81,0.92,3.74,2.46,4.74
				c1.26,0.82,2.92,0.84,4.35,0.37s2.67-1.37,3.85-2.3c4.86-3.84,9.04-8.43,13.3-12.9c4.04-4.25,13.02-16.51,20.01-11.79
				c1.83,1.23,2.97,3.24,3.85,5.26c4.83,10.97,4.08,23.47,9.55,34.24c1.24,2.43,2.9,4.86,5.42,5.89c2.1,0.86,4.53,0.6,6.62-0.28
				c2.09-0.88,3.88-2.35,5.52-3.91c5.44-5.19,9.5-11.61,13.07-18.18c3.04-5.6,4.78-12.35,9.24-17.2c2.05-2.22,4.92-3.77,7.99-3.02
				c2.93,0.72,5.19,3.16,6.6,5.71c1.28,2.32,2.25,4.83,3.45,7.2c1.24,2.44,2.55,4.84,3.94,7.2c4.76,8.09,11.91,19.43,22.05,21.1
				c0.68,0.11,1.38,0.17,2.07,0.17c0,0,13.17,0.82,9.05-22.63c-1-5.7-1.95-11.67-1.45-17.47c0.35-4.02,3.53-7.1,7.72-5.67
				c4.51,1.55,7.21,6.29,9.76,9.99c2.15,3.11,4.66,6.07,7.65,8.41c5.65,4.42,15.81,6.12,15.91-3.85c0.06-5.51-2.79-12.03-4.57-17.18
				c-8.58-24.82-14.29-53.23-30.44-74.51c-2.74-3.61-6.29-7.79-10.96-8.76C177.36,134.26,83.75,141.87,83.75,141.87z"/>
		</g>
		<g>
			<path d="M116.69,272.04c-1.03,0-2.02-0.18-2.9-0.54c-2.83-1.15-4.52-3.98-5.56-6.01c-2.9-5.71-4.08-11.99-5.22-18.06
				c-1.02-5.42-2.07-11.03-4.34-16.18c-0.76-1.73-1.88-3.87-3.76-5.15c-5.81-3.92-13.24,4.5-17.67,9.53c-0.76,0.87-1.42,1.61-2,2.22
				c-0.52,0.54-1.03,1.08-1.55,1.63c-3.68,3.89-7.5,7.91-11.78,11.29c-1.11,0.87-2.41,1.85-3.93,2.35c-1.65,0.54-3.36,0.39-4.57-0.4
				c-1.75-1.14-2.3-3.35-2.57-4.91c-1.15-6.74,0.01-13.93,1.13-20.88c0.12-0.73,0.23-1.45,0.35-2.17
				c1.11-7.08,2.66-14.48,4.87-23.29c3.55-14.16,8.25-27.36,13.95-39.26c3.37-7.02,7.2-14.36,12.41-20.51l0.07-0.08l0.11-0.01
				c0.94-0.08,93.88-7.57,113.44-3.49c4.59,0.96,8.06,4.82,11.12,8.86c12.31,16.22,18.57,36.6,24.63,56.3
				c1.87,6.07,3.79,12.35,5.85,18.28c0.32,0.94,0.68,1.91,1.06,2.94c1.68,4.58,3.58,9.78,3.53,14.33c-0.04,4.32-1.96,6.15-3.57,6.92
				c-3.7,1.78-9.22-0.09-12.77-2.86c-2.73-2.14-5.25-4.91-7.71-8.47c-0.31-0.45-0.63-0.92-0.95-1.4c-2.25-3.36-4.8-7.16-8.68-8.49
				c-1.7-0.58-3.3-0.43-4.64,0.45c-1.53,0.99-2.55,2.86-2.73,5c-0.49,5.65,0.4,11.46,1.45,17.4c1.65,9.41,0.77,16.1-2.62,19.89
				c-2.91,3.25-6.55,3.06-6.7,3.05c0,0-0.01,0-0.01,0c-0.66,0-1.37-0.06-2.09-0.18c-4.57-0.75-8.89-3.44-13.2-8.22
				c-3.53-3.92-6.43-8.56-9.04-13c-1.39-2.36-2.72-4.79-3.95-7.22c-0.51-1.01-0.99-2.06-1.45-3.08c-0.62-1.37-1.27-2.78-2-4.11
				c-0.96-1.73-3.06-4.76-6.43-5.59c-2.61-0.64-5.43,0.43-7.74,2.94c-2.93,3.18-4.7,7.26-6.42,11.2c-0.87,1.99-1.76,4.05-2.79,5.95
				c-3,5.54-7.21,12.61-13.12,18.25c-1.4,1.34-3.3,2.99-5.59,3.97C119.31,271.77,117.97,272.04,116.69,272.04z M91.66,224.55
				c1.21,0,2.41,0.33,3.55,1.11c2,1.35,3.16,3.58,3.95,5.37c2.3,5.21,3.36,10.85,4.38,16.3c1.13,6.04,2.3,12.28,5.17,17.92
				c0.99,1.95,2.62,4.68,5.29,5.76c1.86,0.76,4.2,0.66,6.42-0.28c2.22-0.94,4.07-2.56,5.44-3.86c5.85-5.59,10.03-12.62,13.02-18.12
				c1.02-1.87,1.91-3.92,2.77-5.9c1.73-3.98,3.52-8.1,6.51-11.35c2.44-2.65,5.45-3.78,8.25-3.1c3.56,0.87,5.77,4.04,6.77,5.84
				c0.74,1.34,1.39,2.77,2.02,4.15c0.46,1.01,0.94,2.06,1.44,3.06c1.22,2.42,2.55,4.83,3.93,7.19c3.96,6.72,11.33,19.24,21.87,20.97
				c0.69,0.11,1.37,0.17,2.03,0.17c0.05,0,3.57,0.18,6.3-2.88c3.27-3.67,4.11-10.21,2.49-19.44c-1.05-5.98-1.95-11.82-1.45-17.54
				c0.2-2.29,1.31-4.31,2.97-5.39c1.48-0.96,3.24-1.14,5.1-0.5c4.04,1.38,6.65,5.27,8.95,8.69c0.32,0.47,0.63,0.94,0.94,1.39
				c2.42,3.52,4.91,6.25,7.6,8.35c3.33,2.61,8.75,4.47,12.22,2.8c2.14-1.03,3.24-3.2,3.27-6.45c0.04-4.45-1.84-9.6-3.5-14.15
				c-0.38-1.03-0.73-2-1.06-2.95c-2.05-5.94-3.98-12.22-5.85-18.3c-6.04-19.66-12.29-39.99-24.55-56.14
				c-3-3.95-6.39-7.74-10.81-8.66c-19.19-4-109.5,3.2-113.18,3.49c-5.14,6.09-8.93,13.36-12.27,20.31
				c-5.69,11.86-10.37,25.04-13.92,39.16c-2.21,8.79-3.75,16.18-4.86,23.24c-0.11,0.72-0.23,1.44-0.35,2.17
				c-1.11,6.91-2.26,14.05-1.13,20.71c0.4,2.33,1.14,3.78,2.34,4.56c1.08,0.71,2.62,0.83,4.12,0.34c1.44-0.47,2.7-1.42,3.77-2.26
				c4.26-3.36,8.05-7.37,11.73-11.24c0.52-0.54,1.03-1.09,1.55-1.63c0.57-0.6,1.22-1.34,1.98-2.2
				C80.56,231.07,86.3,224.55,91.66,224.55z"/>
		</g>
	</g>
	<g>
		<g>
			<path class="st22" d="M103.29,162.12c-0.06,0.91-12.96-5.85-14.04-6.48c-16.05-9.47-24.43-29.87-26.5-47.64
				c-5.43-46.53,26.96-91.74,74.96-94.26c22.32-1.17,45.24,6.65,60.95,22.82c28.81,29.64,40.08,94.88,2.24,122.33
				c-1.4,1.01-2.85,1.96-4.35,2.83c-0.03,0.02-0.06,0.04-0.09,0.05c-0.65,0.37-8.04,4.06-8.29,3.45c0.57,1.35,3.68,11,3.94,11.91
				c2.2,7.76,3.97,15.9,3.88,24.01c-0.05,4.25-0.59,8.8-2.8,12.52c-3.95,6.65-11.45,7.98-16.36,2.34
				c-4.81-5.52-7.06-13.35-8.83-20.28c-1.8-7.03-3-14.22-3.93-21.41c0.58,8,0.84,16.08-0.04,24.08c-0.63,5.69-1.58,11.54-4.13,16.72
				c-1.62,3.3-4.33,7.24-8.01,8.41c-6.57,2.09-9.3-6.19-10.39-11.09c-2.45-11.03-3-22.53-3.29-33.79c-0.03-1.32-0.06-2.63-0.08-3.95
				c0,0-3.14,53.39-21.65,47.22C116.46,221.88,99.8,216.53,103.29,162.12z"/>
		</g>
		<g>
			<path d="M149.87,224.09c-0.99,0-1.92-0.25-2.79-0.75c-3.26-1.87-4.98-6.95-5.85-10.88c-2.45-11.04-3-22.69-3.27-32.86
				c-0.38,3.8-1.06,9.37-2.2,15.21c-2.73,14.07-6.65,22.92-11.64,26.3c-2.36,1.6-4.97,1.94-7.75,1.01
				c-0.17-0.06-4.32-1.47-8.05-9.62c-2.18-4.75-3.76-10.83-4.71-18.07c-1.17-8.95-1.38-19.71-0.61-31.99
				c-0.58-0.08-2.12-0.61-6.79-2.92c-3.28-1.62-6.58-3.37-7.1-3.68c-7.54-4.45-13.79-11.45-18.59-20.81
				c-4.14-8.07-6.92-17.42-8.04-27.03c-2.81-24.14,4.43-48.47,19.87-66.76c14.17-16.79,33.83-26.66,55.34-27.79
				c11.2-0.59,22.63,1.11,33.06,4.92c10.78,3.94,20.49,10.15,28.09,17.98c8.54,8.79,15.83,21.12,20.51,34.73
				c4.83,14.03,6.77,28.58,5.6,42.09c-1.72,19.93-9.99,35.8-23.91,45.9c-1.42,1.03-2.89,1.99-4.37,2.84l-0.09,0.05
				c-0.06,0.04-6.17,3.2-8.03,3.52c0.84,2.25,3.52,10.58,3.79,11.54c1.86,6.58,3.99,15.27,3.89,24.08
				c-0.06,5.47-0.96,9.49-2.84,12.65c-2.07,3.49-5.19,5.67-8.56,5.97c-3.04,0.28-5.96-1-8.22-3.59c-4.8-5.51-7.02-13.09-8.89-20.39
				c-1.18-4.6-2.17-9.52-3.04-15.15c0.24,5.46,0.26,11.66-0.42,17.78c-0.62,5.6-1.55,11.51-4.15,16.81
				c-1.3,2.63-4.08,7.25-8.16,8.55C151.24,223.97,150.54,224.09,149.87,224.09z M137.85,174.65l0.52,0.01
				c0.02,1.34,0.05,2.67,0.08,3.95c0.27,10.37,0.77,22.39,3.29,33.74c0.85,3.82,2.51,8.76,5.6,10.54c1.32,0.76,2.82,0.88,4.46,0.36
				c3.9-1.24,6.59-5.72,7.85-8.28c2.57-5.23,3.49-11.08,4.1-16.63c0.95-8.62,0.52-17.37,0.04-24.03l0.52-0.05
				c1.09,8.38,2.34,15.17,3.93,21.38c1.85,7.24,4.05,14.76,8.77,20.18c2.15,2.46,4.91,3.68,7.78,3.41c3.2-0.29,6.18-2.38,8.16-5.72
				c1.83-3.08,2.71-7.02,2.77-12.39c0.1-8.74-2.02-17.38-3.87-23.93c-0.28-0.99-3.38-10.59-3.93-11.88l0,0l0,0l0.48-0.2
				c-0.03-0.06-0.08-0.09-0.1-0.09c0.72,0.16,7.13-2.97,8.02-3.48l0.09-0.05c1.46-0.85,2.92-1.79,4.33-2.81
				c13.8-10,21.99-25.74,23.7-45.52c2.36-27.3-8.08-58-25.97-76.41c-15.01-15.45-37.72-23.95-60.75-22.74
				c-21.37,1.12-40.89,10.93-54.97,27.6c-15.35,18.18-22.55,42.37-19.75,66.36c1.93,16.55,9.87,37.71,26.38,47.45
				c1.28,0.76,12.78,6.71,13.77,6.53c-0.04,0.01-0.12,0.07-0.12,0.16l0.52,0.03c-1.8,27.97,1.84,42.67,5.21,50.07
				c3.64,7.99,7.74,9.42,7.78,9.43c2.62,0.87,5.07,0.55,7.29-0.95c4.8-3.25,8.75-12.23,11.42-25.96
				C137.27,184.3,137.85,174.74,137.85,174.65z"/>
		</g>
	</g>
	<g>
		<g>
			<circle cx="97.33" cy="142.05" r="5.97"/>
		</g>
	</g>
	<g>
		<g>
			<circle cx="196.08" cy="143.12" r="5.97"/>
		</g>
	</g>
</g>
</svg>
