<svg version="1.1" id="Layer_1" xmlns="http://www.w3.org/2000/svg" x="0" y="0" viewBox="0 0 300 300" xml:space="preserve">
  <style> .st16{fill:#8dc540}.st17{fill:#f79420}.st18{fill:#51a6d7}.st19{fill:#85348a}.st20{fill:#5f3a16}.st21{fill:#c93f8c} </style>
	<path d="M133.37 268.11c0-3.8 3.09-6.9 6.9-6.9 1.32 0 2.56.38 3.62 1.03 1.21-1.78 2.39-3.55 3.53-5.27.39-.59.77-1.18 1.15-1.77 1.18-1.83 2.39-3.72 3.81-5.44 1.42-1.73 4.38-5.33 7.52-4.27 2.44.83 2.97 3.51 3.4 5.67.06.29.11.58.17.84.7 3.19 1.9 6.26 3.1 9.11 3.88 9.19 10.86 20.93 22.14 24.68 10.76 3.58 23.71-1.85 28.28-11.86 1.59-3.47 2.25-7.37 1.91-11.26-.31-3.6-1.57-6.78-2.9-10.15-.19-.49-.39-.97-.58-1.46-1.03-2.65-1.19-4.38-.49-5.3.41-.54 1.08-.76 1.99-.66 1.68.19 3.41 2.72 4.79 4.75.46.67.85 1.24 1.17 1.63 2.43 2.93 4.75 5.46 7.08 7.72 3.71 3.59 10.61 10.27 16.87 9.17.07-.01 3.13-.62 4.43-3.75 1.29-3.12 1.08-9.38-7.3-21.46-.71-1.03-7.38-6.68-13.27-11.67-4.51-3.83-8.78-7.44-10.02-8.69-3.03-3.03-27.36-14.69-29.53-14.69-2.41 0-73.08 7.8-80.19 8.64l-.13.02c-30.32 3.57-36.19 6.54-36.99 8-2.17 3.94-18.26 20.78-20.09 22.68l-.03.03c-.76.9-2.04 5.99-2.52 7.91-.1.38-.17.69-.23.89-1.22 4.59-1.99 8.39-2.41 11.97-.38 3.19-.91 7.57.56 10.87.6 1.34 1.54 2.23 2.79 2.65 2.04.68 5.06.07 8.07-1.63 1.67-.94 3.33-2.23 4.94-3.83 5.43-5.39 8.66-12.34 10.86-17.78.14-.36.34-.89.6-1.57 1.91-5.12 6.39-17.11 11.55-18.35.3-.07.59-.11.88-.11 1.01 0 1.99.43 2.92 1.28 2.79 2.57 3.66 7.33 4.37 11.16.15.82.29 1.59.44 2.3 1.07 5.01 1.31 10.14 1.53 15.11.19 4.16.38 8.45 1.07 12.62.69 4.14 1.68 8.76 4.86 11.05 3.16 2.28 7.55 1.37 10.61-.24 7.38-3.89 14.16-9.79 21.13-18.45a7 7 0 0 1-2.36-5.22" style="fill:#fdf27f"/>
	<circle class="st16" cx="60.31" cy="262.57" r="5.06"/>
	<path d="M60.31 267.89a5.33 5.33 0 0 1-5.32-5.32 5.33 5.33 0 0 1 5.32-5.32 5.33 5.33 0 0 1 5.32 5.32 5.33 5.33 0 0 1-5.32 5.32m0-10.12c-2.64 0-4.8 2.15-4.8 4.8 0 2.64 2.15 4.8 4.8 4.8s4.8-2.15 4.8-4.8-2.16-4.8-4.8-4.8"/>
	<circle class="st17" cx="55.59" cy="274.58" r="2.75"/>
	<path d="M55.59 277.51c-1.61 0-2.93-1.31-2.93-2.93 0-1.61 1.31-2.93 2.93-2.93s2.93 1.31 2.93 2.93c-.01 1.61-1.32 2.93-2.93 2.93m0-5.51c-1.42 0-2.58 1.16-2.58 2.58s1.16 2.58 2.58 2.58 2.58-1.16 2.58-2.58c-.01-1.42-1.16-2.58-2.58-2.58"/>
	<circle class="st18" cx="70.4" cy="255.65" r="2.65"/>
	<path d="M70.4 258.56c-1.61 0-2.91-1.31-2.91-2.91 0-1.61 1.31-2.91 2.91-2.91s2.91 1.31 2.91 2.91c0 1.61-1.31 2.91-2.91 2.91m0-5.3a2.39 2.39 0 1 0 0 4.78 2.39 2.39 0 0 0 0-4.78"/>
	<circle class="st16" cx="75.34" cy="247.58" r="1.98"/>
	<path d="M75.34 249.73c-1.19 0-2.15-.97-2.15-2.15 0-1.19.97-2.15 2.15-2.15 1.19 0 2.15.97 2.15 2.15s-.96 2.15-2.15 2.15m0-3.96a1.81 1.81 0 1 0 0 3.62 1.81 1.81 0 0 0 0-3.62"/>
	<circle class="st16" cx="93.98" cy="234.84" r="2.88"/>
	<path d="M93.98 237.99c-1.73 0-3.14-1.41-3.14-3.14s1.41-3.14 3.14-3.14 3.14 1.41 3.14 3.14-1.4 3.14-3.14 3.14m0-5.76c-1.44 0-2.62 1.17-2.62 2.62s1.17 2.62 2.62 2.62 2.62-1.17 2.62-2.62-1.17-2.62-2.62-2.62"/>
	<circle class="st19" cx="81.96" cy="238.48" r="2.67"/>
	<path d="M81.96 241.33c-1.57 0-2.85-1.28-2.85-2.85s1.28-2.85 2.85-2.85 2.85 1.28 2.85 2.85-1.28 2.85-2.85 2.85m0-5.35a2.5 2.5 0 0 0 0 5 2.5 2.5 0 0 0 0-5"/>
	<circle class="st19" cx="98.7" cy="244.19" r="2.07"/>
	<path d="M98.7 246.44c-1.24 0-2.25-1.01-2.25-2.25s1.01-2.25 2.25-2.25 2.25 1.01 2.25 2.25-1.01 2.25-2.25 2.25m0-4.15a1.9 1.9 0 1 0 0 3.8 1.9 1.9 0 1 0 0-3.8"/>
	<circle class="st20" cx="99.1" cy="251.64" r="3.03"/>
	<path d="M99.1 254.84a3.21 3.21 0 0 1-3.2-3.2c0-1.76 1.44-3.2 3.2-3.2s3.2 1.44 3.2 3.2-1.43 3.2-3.2 3.2m0-6.05c-1.57 0-2.85 1.28-2.85 2.85s1.28 2.85 2.85 2.85 2.85-1.28 2.85-2.85-1.28-2.85-2.85-2.85"/>
	<circle class="st16" cx="102.53" cy="257.22" r="1.84"/>
	<path d="M102.53 259.23a2.01 2.01 0 1 1 0-4.02 2.01 2.01 0 0 1 0 4.02m0-3.68c-.92 0-1.66.75-1.66 1.66 0 .92.75 1.66 1.66 1.66.92 0 1.66-.75 1.66-1.66s-.75-1.66-1.66-1.66"/>
	<circle class="st21" cx="102.23" cy="266.42" r="3.71"/>
	<path d="M102.23 270.31c-2.14 0-3.89-1.74-3.89-3.89 0-2.14 1.74-3.89 3.89-3.89 2.14 0 3.89 1.74 3.89 3.89a3.9 3.9 0 0 1-3.89 3.89m0-7.43c-1.95 0-3.54 1.59-3.54 3.54s1.59 3.54 3.54 3.54 3.54-1.59 3.54-3.54-1.59-3.54-3.54-3.54"/>
	<circle class="st17" cx="105.39" cy="274.96" r="1.78"/>
	<path d="M105.39 276.92c-1.08 0-1.96-.88-1.96-1.96s.88-1.96 1.96-1.96 1.96.88 1.96 1.96-.88 1.96-1.96 1.96m0-3.56a1.609 1.609 0 1 0 0 3.22 1.609 1.609 0 1 0 0-3.22"/>
	<circle class="st20" cx="120.78" cy="280.72" r="1.78"/>
	<path d="M120.78 282.68c-1.08 0-1.96-.88-1.96-1.96s.88-1.96 1.96-1.96 1.96.88 1.96 1.96-.88 1.96-1.96 1.96m0-3.57a1.609 1.609 0 1 0 0 3.22 1.609 1.609 0 1 0 0-3.22"/>
	<circle class="st18" cx="108.38" cy="285.71" r="7.41"/>
	<path d="M108.38 293.38c-4.23 0-7.67-3.44-7.67-7.67s3.44-7.67 7.67-7.67 7.67 3.44 7.67 7.67-3.44 7.67-7.67 7.67m0-14.82c-3.94 0-7.14 3.21-7.14 7.14 0 3.94 3.21 7.14 7.14 7.14 3.94 0 7.14-3.21 7.14-7.14.01-3.93-3.2-7.14-7.14-7.14"/>
	<circle class="st18" cx="127.76" cy="276.01" r="2.25"/>
	<path d="M127.76 278.52c-1.38 0-2.51-1.13-2.51-2.51s1.13-2.51 2.51-2.51 2.51 1.13 2.51 2.51-1.13 2.51-2.51 2.51m0-4.49c-1.09 0-1.98.89-1.98 1.98s.89 1.98 1.98 1.98 1.98-.89 1.98-1.98-.89-1.98-1.98-1.98"/>
	<circle class="st20" cx="145.13" cy="254.83" r="1.82"/>
	<path d="M145.13 256.83c-1.1 0-2-.9-2-2s.9-2 2-2 2 .9 2 2-.9 2-2 2m0-3.65c-.91 0-1.65.74-1.65 1.65s.74 1.65 1.65 1.65 1.65-.74 1.65-1.65-.74-1.65-1.65-1.65"/>
	<circle class="st21" cx="150.11" cy="246.25" r="3.2"/>
	<path d="M150.11 249.63c-1.86 0-3.37-1.51-3.37-3.37s1.51-3.37 3.37-3.37 3.37 1.51 3.37 3.37c0 1.85-1.51 3.37-3.37 3.37m0-6.4c-1.67 0-3.02 1.36-3.02 3.02s1.36 3.02 3.02 3.02c1.67 0 3.02-1.36 3.02-3.02s-1.36-3.02-3.02-3.02"/>
	<circle class="st20" cx="157.15" cy="237.06" r="2.42"/>
	<path d="M157.15 239.65a2.59 2.59 0 1 1 .001-5.181 2.59 2.59 0 0 1-.001 5.181m0-4.84c-1.24 0-2.24 1.01-2.24 2.24 0 1.24 1.01 2.24 2.24 2.24 1.24 0 2.24-1.01 2.24-2.24a2.25 2.25 0 0 0-2.24-2.24"/>
	<circle class="st18" cx="164.48" cy="244.19" r="2.07"/>
	<path d="M164.48 246.44c-1.24 0-2.25-1.01-2.25-2.25s1.01-2.25 2.25-2.25 2.25 1.01 2.25 2.25-1.01 2.25-2.25 2.25m0-4.15a1.9 1.9 0 1 0 0 3.8 1.9 1.9 0 1 0 0-3.8"/>
	<circle class="st16" cx="171.2" cy="260.83" r="2.07"/>
	<path d="M171.2 263.16c-1.28 0-2.33-1.04-2.33-2.33s1.04-2.33 2.33-2.33c1.28 0 2.33 1.04 2.33 2.33s-1.05 2.33-2.33 2.33m0-4.13c-.99 0-1.8.81-1.8 1.8s.81 1.8 1.8 1.8 1.8-.81 1.8-1.8-.81-1.8-1.8-1.8"/>
	<circle class="st17" cx="178.63" cy="269.17" r="2.09"/>
	<path d="M178.63 271.44c-1.25 0-2.26-1.02-2.26-2.26 0-1.25 1.02-2.26 2.26-2.26 1.25 0 2.26 1.02 2.26 2.26s-1.01 2.26-2.26 2.26m0-4.18a1.91 1.91 0 1 0 0 3.82 1.91 1.91 0 0 0 0-3.82"/>
	<circle class="st20" cx="178.44" cy="274.19" r="1.39"/>
	<path d="M178.44 275.76c-.86 0-1.56-.7-1.56-1.56s.7-1.56 1.56-1.56 1.56.7 1.56 1.56-.7 1.56-1.56 1.56m0-2.78c-.67 0-1.21.54-1.21 1.21s.54 1.21 1.21 1.21 1.21-.54 1.21-1.21c.01-.67-.54-1.21-1.21-1.21"/>
	<circle class="st16" cx="186.8" cy="277.76" r="4.61"/>
	<path d="M186.8 282.63a4.87 4.87 0 1 1-.001-9.741 4.87 4.87 0 0 1 .001 9.741m0-9.21c-2.4 0-4.35 1.95-4.35 4.35s1.95 4.35 4.35 4.35 4.35-1.95 4.35-4.35-1.95-4.35-4.35-4.35"/>
	<circle class="st18" cx="195.47" cy="281.55" r="1.85"/>
	<path d="M195.47 283.66a2.11 2.11 0 0 1 0-4.22c1.16 0 2.11.95 2.11 2.11s-.95 2.11-2.11 2.11m0-3.7c-.88 0-1.59.71-1.59 1.59s.71 1.59 1.59 1.59 1.59-.71 1.59-1.59-.72-1.59-1.59-1.59"/>
	<circle class="st21" cx="205.68" cy="278.13" r="6.1"/>
	<path d="M205.68 284.49c-3.51 0-6.36-2.85-6.36-6.36s2.85-6.36 6.36-6.36 6.36 2.85 6.36 6.36c-.01 3.5-2.86 6.36-6.36 6.36m0-12.2c-3.22 0-5.83 2.62-5.83 5.83 0 3.22 2.62 5.83 5.83 5.83 3.22 0 5.83-2.62 5.83-5.83s-2.62-5.83-5.83-5.83"/>
	<circle class="st17" cx="213.8" cy="266.97" r="3.34"/>
	<path d="M213.8 270.48c-1.94 0-3.52-1.58-3.52-3.52s1.58-3.52 3.52-3.52 3.52 1.58 3.52 3.52c0 1.95-1.58 3.52-3.52 3.52m0-6.68a3.171 3.171 0 0 0 0 6.34 3.171 3.171 0 0 0 0-6.34"/>
	<circle class="st19" cx="211.93" cy="257.53" r="2.52"/>
	<path d="M211.93 260.22a2.69 2.69 0 0 1-2.69-2.69 2.7 2.7 0 0 1 2.69-2.7c1.49 0 2.69 1.21 2.69 2.7 0 1.48-1.21 2.69-2.69 2.69m0-5.04c-1.29 0-2.35 1.05-2.35 2.35 0 1.29 1.05 2.35 2.35 2.35 1.29 0 2.35-1.05 2.35-2.35a2.36 2.36 0 0 0-2.35-2.35"/>
	<circle class="st18" cx="211" cy="247.5" r="3.19"/>
	<path d="M211 250.86c-1.85 0-3.36-1.51-3.36-3.36s1.51-3.36 3.36-3.36 3.36 1.51 3.36 3.36-1.51 3.36-3.36 3.36m0-6.38c-1.66 0-3.01 1.35-3.01 3.01s1.35 3.01 3.01 3.01 3.01-1.35 3.01-3.01a3.02 3.02 0 0 0-3.01-3.01"/>
	<circle class="st20" cx="207.39" cy="238.1" r="2.01"/>
	<path d="M207.39 240.29a2.19 2.19 0 1 1-.001-4.379 2.19 2.19 0 0 1 .001 4.379m0-4.02c-1.01 0-1.84.82-1.84 1.84 0 1.01.82 1.84 1.84 1.84 1.01 0 1.84-.82 1.84-1.84s-.82-1.84-1.84-1.84"/>
	<circle class="st18" cx="218.57" cy="236.13" r="5.23"/>
	<path d="M218.57 241.62c-3.03 0-5.49-2.46-5.49-5.49s2.46-5.49 5.49-5.49 5.49 2.46 5.49 5.49-2.46 5.49-5.49 5.49m0-10.45c-2.74 0-4.96 2.23-4.96 4.96s2.23 4.96 4.96 4.96 4.96-2.23 4.96-4.96-2.22-4.96-4.96-4.96"/>
	<circle class="st20" cx="227.14" cy="249.44" r="2.07"/>
	<path d="M227.14 251.68c-1.24 0-2.24-1.01-2.24-2.24 0-1.24 1.01-2.24 2.24-2.24 1.24 0 2.24 1.01 2.24 2.24 0 1.24-1 2.24-2.24 2.24m0-4.13c-1.04 0-1.89.85-1.89 1.89s.85 1.89 1.89 1.89 1.89-.85 1.89-1.89-.84-1.89-1.89-1.89"/>
	<circle class="st18" cx="236.62" cy="255.16" r="2.37"/>
	<path d="M236.62 257.79c-1.45 0-2.63-1.18-2.63-2.63s1.18-2.63 2.63-2.63 2.63 1.18 2.63 2.63-1.19 2.63-2.63 2.63m0-4.73a2.1 2.1 0 1 0 0 4.2 2.1 2.1 0 0 0 0-4.2"/>
	<circle class="st16" cx="245.46" cy="252.74" r="1.75"/>
	<path d="M245.46 254.76a2.01 2.01 0 1 1 2.01-2.01c0 1.1-.9 2.01-2.01 2.01m0-3.5c-.82 0-1.49.67-1.49 1.49s.67 1.49 1.49 1.49 1.49-.67 1.49-1.49c0-.83-.67-1.49-1.49-1.49"/>
	<circle class="st17" cx="244.54" cy="260.25" r="4.42"/>
	<path d="M244.54 264.94c-2.58 0-4.69-2.1-4.69-4.69s2.1-4.69 4.69-4.69c2.58 0 4.69 2.1 4.69 4.69s-2.11 4.69-4.69 4.69m0-8.85a4.17 4.17 0 0 0-4.16 4.16 4.17 4.17 0 0 0 4.16 4.16 4.17 4.17 0 0 0 4.16-4.16 4.17 4.17 0 0 0-4.16-4.16"/>
	<path d="M140.06 261.01c.73 0 1.44.12 2.1.33.64.15 1.26.39 1.84.72 1.17-1.72 2.3-3.42 3.4-5.08.39-.59.77-1.18 1.15-1.77 1.18-1.83 2.39-3.72 3.81-5.44 1.42-1.73 4.38-5.33 7.52-4.27 2.44.83 2.97 3.51 3.4 5.67.06.29.11.58.17.84.7 3.19 1.9 6.26 3.1 9.11 3.88 9.19 10.86 20.93 22.14 24.68 10.76 3.58 23.71-1.85 28.28-11.86 1.59-3.47 2.25-7.37 1.91-11.26-.31-3.6-1.57-6.78-2.9-10.15-.19-.49-.39-.97-.58-1.46-1.03-2.65-1.19-4.38-.49-5.3.41-.54 1.08-.76 1.99-.66 1.68.19 3.41 2.72 4.79 4.75.46.67.85 1.24 1.17 1.63 2.43 2.93 4.75 5.46 7.08 7.72 3.71 3.59 10.61 10.27 16.87 9.17.07-.01 3.13-.62 4.43-3.75 1.29-3.12 1.08-9.38-7.3-21.46-.71-1.03-7.38-6.68-13.27-11.67-4.51-3.83-8.78-7.44-10.02-8.69-3.03-3.03-27.36-14.69-29.53-14.69-2.41 0-73.08 7.8-80.19 8.64l-.13.02c-30.32 3.57-36.19 6.54-36.99 8-2.17 3.94-18.26 20.78-20.09 22.68l-.03.03c-.76.9-2.04 5.99-2.52 7.91-.1.38-.17.69-.23.89-1.22 4.59-1.99 8.39-2.41 11.97-.38 3.19-.91 7.57.56 10.87.6 1.34 1.54 2.23 2.79 2.65 2.04.68 5.06.07 8.07-1.63 1.67-.94 3.33-2.23 4.94-3.83 5.43-5.39 8.66-12.34 10.86-17.78.14-.36.34-.89.6-1.57 1.91-5.12 6.39-17.11 11.55-18.35.3-.07.59-.11.88-.11 1.01 0 1.99.43 2.92 1.28 2.79 2.57 3.66 7.33 4.37 11.16.15.82.29 1.59.44 2.3 1.07 5.01 1.31 10.14 1.53 15.11.19 4.16.38 8.45 1.07 12.62.69 4.14 1.68 8.76 4.86 11.05 3.16 2.28 7.55 1.37 10.61-.24 7.3-3.84 14.01-9.67 20.91-18.17a7.23 7.23 0 0 1-2.16-4.06c-.13-.53-.21-1.08-.21-1.64.05-3.83 3.14-6.91 6.94-6.91" style="fill:none"/>
	<path class="st17" d="M140.5 261.14c.57 0 1.12.07 1.66.2a6.89 6.89 0 0 0-8.99 6.56c0 .57.08 1.12.21 1.64-.06-.39-.11-.78-.11-1.18 0-3.98 3.25-7.22 7.23-7.22"/>
	<path d="M133.13 269.6q-.21-.87-.21-1.71c0-3.94 3.21-7.15 7.15-7.15.74 0 1.47.11 2.18.34l-.14.5c-.53-.13-1.07-.19-1.6-.19-3.84 0-6.97 3.13-6.97 6.97 0 .35.03.72.1 1.13z"/>
	<path class="st17" d="M140.5 261.14c-3.99 0-7.23 3.24-7.23 7.23 0 .4.04.79.11 1.18.44 1.79 1.57 3.3 3.1 4.23l.32-.87s3.6-4.89 5.92-7.63l1.7-2.71c-.7-.61-1.34-.93-2.24-1.22-.56-.14-1.11-.21-1.68-.21"/>
	<path d="M244.66 242.64c-.78-1.12-7.2-6.57-13.42-11.83-4.5-3.81-8.75-7.42-9.97-8.64-2.79-2.79-27.3-14.94-30.14-14.94-2.53 0-73.04 7.79-80.29 8.64l-.13.02c-23.74 2.79-36.06 5.55-37.64 8.43-2.12 3.85-18.14 20.61-19.96 22.5l-.05.05c-.78.91-1.77 4.51-2.71 8.27-.1.38-.17.68-.22.88-1.23 4.63-2 8.47-2.44 12.09-.4 3.29-.94 7.8.63 11.32.7 1.57 1.81 2.62 3.3 3.11 3.27 1.08 7.22-.83 8.76-1.7 1.73-.98 3.46-2.31 5.12-3.97 5.54-5.5 8.82-12.55 11.05-18.07.15-.37.35-.91.61-1.59 1.7-4.56 6.23-16.69 10.95-17.81 1.05-.25 2.04.07 3.02.97 2.58 2.37 3.42 6.98 4.1 10.68.15.82.29 1.6.45 2.32 1.06 4.94 1.29 10.04 1.51 14.97.19 4.18.39 8.5 1.08 12.72.71 4.31 1.76 9.12 5.21 11.6 1.52 1.09 3.27 1.53 5.04 1.53 2.29 0 4.61-.73 6.46-1.71 6.21-3.27 11.99-7.95 17.81-14.44l.12-.16v.02c.49-.57.97-1.14 1.46-1.72 1.07-1.26 2.14-2.5 3.14-3.81q1.35-1.755 2.67-3.51c.88-1.18 1.76-2.37 2.62-3.57l1.77-2.64 1.24-1.85c.78-1.15 1.54-2.3 2.28-3.43.39-.59.77-1.18 1.15-1.77 1.16-1.81 2.37-3.67 3.75-5.36 1.3-1.58 4.01-4.87 6.58-4 1.97.67 2.43 2.98 2.83 5.03.06.3.12.59.18.86.71 3.26 1.93 6.38 3.15 9.26 3.94 9.35 11.08 21.31 22.66 25.16 5.38 1.79 11.41 1.52 16.97-.77 5.64-2.32 10.03-6.42 12.36-11.54 1.65-3.61 2.33-7.65 1.99-11.69-.32-3.73-1.6-6.96-2.96-10.39-.19-.48-.38-.97-.57-1.46-1.12-2.88-.95-4.02-.61-4.47.22-.29.62-.4 1.22-.33 1.29.15 3.03 2.69 4.18 4.38.47.68.87 1.27 1.21 1.69 2.45 2.96 4.79 5.51 7.15 7.79 3.52 3.41 9.85 9.53 16.06 9.53.52 0 1.04-.04 1.55-.13.34-.06 3.46-.73 4.97-4.01 2.22-4.79-.22-12.37-7.25-22.51m-102.35 22.32c-2.2 3.09-5.8 7.75-5.82 7.78l-.14.17a6.17 6.17 0 0 1-2.36-3.52q-.09-.57-.09-1.05c0-3.64 2.96-6.6 6.6-6.6.49 0 1 .06 1.49.18.63.2 1.22.51 1.76.91zm108.94-.37c-1.3 3.13-4.36 3.74-4.43 3.75-6.25 1.1-13.16-5.58-16.87-9.17-2.34-2.26-4.65-4.78-7.08-7.72-.32-.38-.71-.96-1.17-1.63-1.39-2.03-3.11-4.56-4.79-4.75-.91-.1-1.58.12-1.99.66-.7.91-.54 2.65.49 5.3.19.49.38.98.58 1.46 1.33 3.37 2.6 6.55 2.9 10.15.33 3.9-.33 7.79-1.91 11.26-4.57 10.01-17.52 15.44-28.28 11.86-11.28-3.76-18.27-15.5-22.14-24.68-1.2-2.84-2.4-5.91-3.1-9.11-.06-.27-.11-.55-.17-.84-.43-2.16-.95-4.85-3.4-5.67-3.14-1.06-6.09 2.54-7.52 4.27-1.42 1.73-2.64 3.61-3.81 5.44-.38.59-.76 1.18-1.15 1.77-1.02 1.54-2.06 3.11-3.14 4.7-.59-.4-1.19-.78-1.89-1.01l-.06.07a8 8 0 0 0-1.81-.22c-4.33 0-7.97 3.56-7.97 7.89 0 .4.06.81.14 1.27l.01.08c.41 1.66 1.39 3.01 2.71 4.04-6.85 8.4-13.52 14.18-20.76 17.99-3.05 1.61-7.45 2.52-10.61.24-3.18-2.29-4.18-6.9-4.86-11.05-.69-4.16-.88-8.46-1.07-12.62-.23-4.97-.46-10.11-1.53-15.11-.15-.71-.29-1.48-.44-2.3-.7-3.83-1.58-8.59-4.37-11.16-.93-.85-1.9-1.28-2.92-1.28-.29 0-.59.04-.88.11-5.16 1.23-9.64 13.23-11.55 18.35-.25.68-.45 1.21-.6 1.57-2.21 5.44-5.44 12.39-10.86 17.78-1.61 1.6-3.27 2.89-4.94 3.83-3.01 1.7-6.03 2.31-8.07 1.63-1.25-.41-2.19-1.3-2.79-2.65-1.47-3.3-.95-7.68-.56-10.87.43-3.57 1.2-7.38 2.41-11.97.05-.2.13-.51.23-.89.48-1.92 1.76-7.01 2.52-7.91l.03-.03c1.83-1.91 17.92-18.74 20.09-22.68.8-1.46 6.67-4.43 36.99-8l.13-.02c7.11-.84 77.78-8.64 80.19-8.64 2.17 0 26.5 11.66 29.53 14.69 1.25 1.25 5.51 4.86 10.02 8.69 5.88 4.99 12.55 10.64 13.27 11.67 8.33 12.08 8.54 18.34 7.25 21.46"/>
	<path class="st19" d="M83.75 141.87c-5.12 6.05-8.97 13.36-12.37 20.45-6.01 12.53-10.55 25.74-13.94 39.21-1.93 7.68-3.64 15.43-4.87 23.26-1.16 7.36-2.74 15.54-1.47 22.96.31 1.81.92 3.74 2.46 4.74 1.26.82 2.92.84 4.35.37s2.67-1.37 3.85-2.3c4.86-3.84 9.04-8.43 13.3-12.9 4.04-4.25 13.02-16.51 20.01-11.79 1.83 1.23 2.97 3.24 3.85 5.26 4.83 10.97 4.08 23.47 9.55 34.24 1.24 2.43 2.9 4.86 5.42 5.89 2.1.86 4.53.6 6.62-.28s3.88-2.35 5.52-3.91c5.44-5.19 9.5-11.61 13.07-18.18 3.04-5.6 4.78-12.35 9.24-17.2 2.05-2.22 4.92-3.77 7.99-3.02 2.93.72 5.19 3.16 6.6 5.71 1.28 2.32 2.25 4.83 3.45 7.2 1.24 2.44 2.55 4.84 3.94 7.2 4.76 8.09 11.91 19.43 22.05 21.1.68.11 1.38.17 2.07.17 0 0 13.17.82 9.05-22.63-1-5.7-1.95-11.67-1.45-17.47.35-4.02 3.53-7.1 7.72-5.67 4.51 1.55 7.21 6.29 9.76 9.99 2.15 3.11 4.66 6.07 7.65 8.41 5.65 4.42 15.81 6.12 15.91-3.85.06-5.51-2.79-12.03-4.57-17.18-8.58-24.82-14.29-53.23-30.44-74.51-2.74-3.61-6.29-7.79-10.96-8.76-19.75-4.12-113.36 3.49-113.36 3.49"/>
	<path d="M116.69 272.04c-1.03 0-2.02-.18-2.9-.54-2.83-1.15-4.52-3.98-5.56-6.01-2.9-5.71-4.08-11.99-5.22-18.06-1.02-5.42-2.07-11.03-4.34-16.18-.76-1.73-1.88-3.87-3.76-5.15-5.81-3.92-13.24 4.5-17.67 9.53-.76.87-1.42 1.61-2 2.22-.52.54-1.03 1.08-1.55 1.63-3.68 3.89-7.5 7.91-11.78 11.29-1.11.87-2.41 1.85-3.93 2.35-1.65.54-3.36.39-4.57-.4-1.75-1.14-2.3-3.35-2.57-4.91-1.15-6.74.01-13.93 1.13-20.88.12-.73.23-1.45.35-2.17 1.11-7.08 2.66-14.48 4.87-23.29 3.55-14.16 8.25-27.36 13.95-39.26 3.37-7.02 7.2-14.36 12.41-20.51l.07-.08.11-.01c.94-.08 93.88-7.57 113.44-3.49 4.59.96 8.06 4.82 11.12 8.86 12.31 16.22 18.57 36.6 24.63 56.3 1.87 6.07 3.79 12.35 5.85 18.28.32.94.68 1.91 1.06 2.94 1.68 4.58 3.58 9.78 3.53 14.33-.04 4.32-1.96 6.15-3.57 6.92-3.7 1.78-9.22-.09-12.77-2.86-2.73-2.14-5.25-4.91-7.71-8.47-.31-.45-.63-.92-.95-1.4-2.25-3.36-4.8-7.16-8.68-8.49-1.7-.58-3.3-.43-4.64.45-1.53.99-2.55 2.86-2.73 5-.49 5.65.4 11.46 1.45 17.4 1.65 9.41.77 16.1-2.62 19.89-2.91 3.25-6.55 3.06-6.7 3.05h-.01c-.66 0-1.37-.06-2.09-.18-4.57-.75-8.89-3.44-13.2-8.22-3.53-3.92-6.43-8.56-9.04-13-1.39-2.36-2.72-4.79-3.95-7.22-.51-1.01-.99-2.06-1.45-3.08-.62-1.37-1.27-2.78-2-4.11-.96-1.73-3.06-4.76-6.43-5.59-2.61-.64-5.43.43-7.74 2.94-2.93 3.18-4.7 7.26-6.42 11.2-.87 1.99-1.76 4.05-2.79 5.95-3 5.54-7.21 12.61-13.12 18.25-1.4 1.34-3.3 2.99-5.59 3.97-1.3.54-2.64.81-3.92.81m-25.03-47.49c1.21 0 2.41.33 3.55 1.11 2 1.35 3.16 3.58 3.95 5.37 2.3 5.21 3.36 10.85 4.38 16.3 1.13 6.04 2.3 12.28 5.17 17.92.99 1.95 2.62 4.68 5.29 5.76 1.86.76 4.2.66 6.42-.28s4.07-2.56 5.44-3.86c5.85-5.59 10.03-12.62 13.02-18.12 1.02-1.87 1.91-3.92 2.77-5.9 1.73-3.98 3.52-8.1 6.51-11.35 2.44-2.65 5.45-3.78 8.25-3.1 3.56.87 5.77 4.04 6.77 5.84.74 1.34 1.39 2.77 2.02 4.15.46 1.01.94 2.06 1.44 3.06 1.22 2.42 2.55 4.83 3.93 7.19 3.96 6.72 11.33 19.24 21.87 20.97.69.11 1.37.17 2.03.17.05 0 3.57.18 6.3-2.88 3.27-3.67 4.11-10.21 2.49-19.44-1.05-5.98-1.95-11.82-1.45-17.54.2-2.29 1.31-4.31 2.97-5.39 1.48-.96 3.24-1.14 5.1-.5 4.04 1.38 6.65 5.27 8.95 8.69.32.47.63.94.94 1.39 2.42 3.52 4.91 6.25 7.6 8.35 3.33 2.61 8.75 4.47 12.22 2.8 2.14-1.03 3.24-3.2 3.27-6.45.04-4.45-1.84-9.6-3.5-14.15-.38-1.03-.73-2-1.06-2.95-2.05-5.94-3.98-12.22-5.85-18.3-6.04-19.66-12.29-39.99-24.55-56.14-3-3.95-6.39-7.74-10.81-8.66-19.19-4-109.5 3.2-113.18 3.49-5.14 6.09-8.93 13.36-12.27 20.31-5.69 11.86-10.37 25.04-13.92 39.16-2.21 8.79-3.75 16.18-4.86 23.24-.11.72-.23 1.44-.35 2.17-1.11 6.91-2.26 14.05-1.13 20.71.4 2.33 1.14 3.78 2.34 4.56 1.08.71 2.62.83 4.12.34 1.44-.47 2.7-1.42 3.77-2.26 4.26-3.36 8.05-7.37 11.73-11.24.52-.54 1.03-1.09 1.55-1.63.57-.6 1.22-1.34 1.98-2.2 3.69-4.19 9.43-10.71 14.79-10.71"/>
	<path d="M103.29 162.12c-.06.91-12.96-5.85-14.04-6.48-16.05-9.47-24.43-29.87-26.5-47.64-5.43-46.53 26.96-91.74 74.96-94.26 22.32-1.17 45.24 6.65 60.95 22.82 28.81 29.64 40.08 94.88 2.24 122.33a52 52 0 0 1-4.44 2.88c-.65.37-8.04 4.06-8.29 3.45.57 1.35 3.68 11 3.94 11.91 2.2 7.76 3.97 15.9 3.88 24.01-.05 4.25-.59 8.8-2.8 12.52-3.95 6.65-11.45 7.98-16.36 2.34-4.81-5.52-7.06-13.35-8.83-20.28-1.8-7.03-3-14.22-3.93-21.41.58 8 .84 16.08-.04 24.08-.63 5.69-1.58 11.54-4.13 16.72-1.62 3.3-4.33 7.24-8.01 8.41-6.57 2.09-9.3-6.19-10.39-11.09-2.45-11.03-3-22.53-3.29-33.79-.03-1.32-.06-2.63-.08-3.95 0 0-3.14 53.39-21.65 47.22-.02-.03-16.68-5.38-13.19-59.79" style="fill:#c676af"/>
	<path d="M149.87 224.09q-1.485 0-2.79-.75c-3.26-1.87-4.98-6.95-5.85-10.88-2.45-11.04-3-22.69-3.27-32.86-.38 3.8-1.06 9.37-2.2 15.21-2.73 14.07-6.65 22.92-11.64 26.3-2.36 1.6-4.97 1.94-7.75 1.01-.17-.06-4.32-1.47-8.05-9.62-2.18-4.75-3.76-10.83-4.71-18.07-1.17-8.95-1.38-19.71-.61-31.99-.58-.08-2.12-.61-6.79-2.92-3.28-1.62-6.58-3.37-7.1-3.68-7.54-4.45-13.79-11.45-18.59-20.81-4.14-8.07-6.92-17.42-8.04-27.03-2.81-24.14 4.43-48.47 19.87-66.76 14.17-16.79 33.83-26.66 55.34-27.79 11.2-.59 22.63 1.11 33.06 4.92 10.78 3.94 20.49 10.15 28.09 17.98 8.54 8.79 15.83 21.12 20.51 34.73 4.83 14.03 6.77 28.58 5.6 42.09-1.72 19.93-9.99 35.8-23.91 45.9a49 49 0 0 1-4.37 2.84l-.09.05c-.06.04-6.17 3.2-8.03 3.52.84 2.25 3.52 10.58 3.79 11.54 1.86 6.58 3.99 15.27 3.89 24.08-.06 5.47-.96 9.49-2.84 12.65-2.07 3.49-5.19 5.67-8.56 5.97-3.04.28-5.96-1-8.22-3.59-4.8-5.51-7.02-13.09-8.89-20.39-1.18-4.6-2.17-9.52-3.04-15.15.24 5.46.26 11.66-.42 17.78-.62 5.6-1.55 11.51-4.15 16.81-1.3 2.63-4.08 7.25-8.16 8.55-.71.24-1.41.36-2.08.36m-12.02-49.44.52.01c.02 1.34.05 2.67.08 3.95.27 10.37.77 22.39 3.29 33.74.85 3.82 2.51 8.76 5.6 10.54 1.32.76 2.82.88 4.46.36 3.9-1.24 6.59-5.72 7.85-8.28 2.57-5.23 3.49-11.08 4.1-16.63.95-8.62.52-17.37.04-24.03l.52-.05c1.09 8.38 2.34 15.17 3.93 21.38 1.85 7.24 4.05 14.76 8.77 20.18 2.15 2.46 4.91 3.68 7.78 3.41 3.2-.29 6.18-2.38 8.16-5.72 1.83-3.08 2.71-7.02 2.77-12.39.1-8.74-2.02-17.38-3.87-23.93-.28-.99-3.38-10.59-3.93-11.88l.48-.2c-.03-.06-.08-.09-.1-.09.72.16 7.13-2.97 8.02-3.48l.09-.05c1.46-.85 2.92-1.79 4.33-2.81 13.8-10 21.99-25.74 23.7-45.52 2.36-27.3-8.08-58-25.97-76.41-15.01-15.45-37.72-23.95-60.75-22.74-21.37 1.12-40.89 10.93-54.97 27.6C67.4 59.79 60.2 83.98 63 107.97c1.93 16.55 9.87 37.71 26.38 47.45 1.28.76 12.78 6.71 13.77 6.53-.04.01-.12.07-.12.16l.52.03c-1.8 27.97 1.84 42.67 5.21 50.07 3.64 7.99 7.74 9.42 7.78 9.43 2.62.87 5.07.55 7.29-.95 4.8-3.25 8.75-12.23 11.42-25.96 2.02-10.43 2.6-19.99 2.6-20.08"/>
	<circle cx="97.33" cy="142.05" r="5.97"/>
	<circle cx="196.08" cy="143.12" r="5.97"/>
</svg>
