<svg xmlns="http://www.w3.org/2000/svg" xmlns:xlink="http://www.w3.org/1999/xlink" version="1.1" width="1080" height="1080" viewBox="0 0 1080 1080" xml:space="preserve">
<g transform="matrix(1 0 0 1 540 540)" id="9a36703a-2689-43e3-8d9b-da9359c5912b"  >
<rect style="stroke: none; stroke-width: 1; stroke-linecap: butt; stroke-dashoffset: 0; stroke-linejoin: miter; stroke-miterlimit: 4; fill: rgb(255,255,255); fill-rule: nonzero; opacity: 1; visibility: hidden;" vector-effect="non-scaling-stroke"  x="-540" y="-540" rx="0" ry="0" width="1080" height="1080" />
</g>
<g transform="matrix(1 0 0 1 540 540)" id="2dc20e09-3b30-4bc6-afc9-3c906f46e20d"  >
</g>
<g transform="matrix(1 0 0 1 540 540)"  >
<g style="" vector-effect="non-scaling-stroke"   >
		<g transform="matrix(1 0 0 1 -15.06 -339.35)"  >
<path style="stroke: none; stroke-width: 1; stroke-linecap: butt; stroke-dashoffset: 0; stroke-linejoin: miter; stroke-miterlimit: 4; fill: rgb(39,62,116); fill-rule: nonzero; opacity: 1;" vector-effect="non-scaling-stroke"  transform=" translate(-438.44, -32.69)" d="M 445.64 1.35 C 451.15999999999997 0.8700000000000001 456.64 0.43000000000000005 462.21 0 C 455.21 8.56 448.21 17.08 441.21 25.63 Q 454.79999999999995 43.269999999999996 468.44 60.91 Q 460.44 61.589999999999996 452.5 62.199999999999996 Q 443 48.57 433.41 34.93 Q 428.8 40.42 424.24 45.93 C 424.72 52.08 425.24 58.230000000000004 425.73 64.38 L 413.43 65.38 Q 410.92 34.86999999999999 408.43 4.3799999999999955 Q 414.58 3.8699999999999957 420.74 3.3799999999999955 C 421.47 12.379999999999995 422.19 21.429999999999996 422.95 30.449999999999996 Q 434.35 15.91 445.64 1.35 Z" stroke-linecap="round" />
</g>
		<g transform="matrix(1 0 0 1 48.34 -337.54)"  >
<path style="stroke: none; stroke-width: 1; stroke-linecap: butt; stroke-dashoffset: 0; stroke-linejoin: miter; stroke-miterlimit: 4; fill: rgb(39,62,116); fill-rule: nonzero; opacity: 1;" vector-effect="non-scaling-stroke"  transform=" translate(-501.84, -34.5)" d="M 480 2 L 492.3 3 Q 491.3 15 490.3 27 Q 502.36 28 514.4300000000001 29 C 515.11 21 515.7600000000001 13 516.4300000000001 5 Q 522.57 5.48 528.72 6 Q 526.21 36.480000000000004 523.6700000000001 67 C 519.57 66.66 515.47 66.33 511.38000000000005 66 C 512.1 57.12 512.85 48.230000000000004 513.57 39.34 C 505.57000000000005 38.68000000000001 497.50000000000006 38 489.46000000000004 37.34 C 488.71000000000004 46.220000000000006 487.99 55.10000000000001 487.24 63.980000000000004 L 474.95 62.980000000000004 Q 477.46 32.44 480 2 Z" stroke-linecap="round" />
</g>
		<g transform="matrix(1 0 0 1 117.35 -325.02)"  >
<path style="stroke: none; stroke-width: 1; stroke-linecap: butt; stroke-dashoffset: 0; stroke-linejoin: miter; stroke-miterlimit: 4; fill: rgb(39,62,116); fill-rule: nonzero; opacity: 1;" vector-effect="non-scaling-stroke"  transform=" translate(-570.85, -47.02)" d="M 563.59 15.72 C 576.7800000000001 13.22 592.49 18.93 598.5 31.54 C 602.71 40.2 601.37 50.42 598.13 59.17 C 595.4399999999999 66.61 590.2 73.43 582.8 76.63 C 574.27 80.53 564.25 79 556 75.11 C 548.8306994904661 71.78865577056374 543.5073283014447 65.45410051535504 541.47 57.82000000000001 C 539.24 49.09 541.38 39.879999999999995 544.94 31.82 C 548.3851211357411 23.896646957862615 555.248614655664 17.9715935706905 563.59 15.720000000000006 Z M 567.49 26.55 C 560.3100000000001 28.48 556.38 35.63 554.6 42.33 C 552.75 48.599999999999994 552.34 56.04 556.52 61.5 C 562.22 69.5 575.4399999999999 70.33 581.6999999999999 62.57 C 586.8967489088193 55.83642174227348 589.2578511309398 47.33932438363935 588.28 38.89 C 586.86 29.58 576.16 24.15 567.49 26.55 Z" stroke-linecap="round" />
</g>
		<g transform="matrix(1 0 0 1 -107.28 -323.83)"  >
<path style="stroke: none; stroke-width: 1; stroke-linecap: butt; stroke-dashoffset: 0; stroke-linejoin: miter; stroke-miterlimit: 4; fill: rgb(39,62,116); fill-rule: nonzero; opacity: 1;" vector-effect="non-scaling-stroke"  transform=" translate(-346.22, -48.21)" d="M 331.67 20.52 C 339.41 16.35 349.21000000000004 14.75 357.35 18.73 C 361.62 20.73 364.71000000000004 24.4 367.22 28.25 C 363.6 30.25 359.97 32.25 356.36 34.34 C 353.66 29.790000000000003 348.5 26.540000000000003 343.09000000000003 27.560000000000002 C 335.81670689041425 28.368973356273766 330.3300280173096 34.542026691080764 330.38000000000005 41.86 C 330.49093769459785 49.67621589667967 332.8631621597384 57.29303617787043 337.21000000000004 63.789999999999985 C 341.90000000000003 70.5 352.67 71.06 358.15000000000003 65.06 C 361.35 61.72 361.79 56.89 361.81000000000006 52.5 C 365.9800000000001 52.64 370.1600000000001 52.77 374.34000000000003 52.93 C 374.23 59.17 372.96000000000004 65.76 368.76000000000005 70.61 C 363.66 76.61 355.76000000000005 79.48 348.07000000000005 79.95 C 338.46000000000004 80.47 329.07000000000005 74.95 324.25000000000006 66.73 C 320.05584940596026 59.48988440066715 317.9350852792349 51.23516465129241 318.12000000000006 42.87000000000002 C 318.3591989282256 33.54588194970384 323.51349757966904 25.044142107655098 331.67 20.520000000000003 Z" stroke-linecap="round" />
</g>
		<g transform="matrix(1 0 0 1 170.46 -296.11)"  >
<path style="stroke: none; stroke-width: 1; stroke-linecap: butt; stroke-dashoffset: 0; stroke-linejoin: miter; stroke-miterlimit: 4; fill: rgb(39,62,116); fill-rule: nonzero; opacity: 1;" vector-effect="non-scaling-stroke"  transform=" translate(-623.96, -75.94)" d="M 594.41 85.91 Q 618 63.08 641.66 40.28 L 653.52 45.75 Q 651.87 78.68 650.18 111.6 C 646.1099999999999 109.72999999999999 642.04 107.86999999999999 637.9799999999999 105.97999999999999 Q 638.4399999999999 98.55999999999999 638.93 91.11999999999999 C 631.52 87.69999999999999 624.1099999999999 84.25999999999999 616.68 80.88999999999999 Q 611.51 86.15999999999998 606.3 91.38999999999999 Q 600.35 88.66 594.41 85.91 Z M 624.49 73.09 Q 632.05 76.61 639.64 80.09 C 640.25 72.09 640.89 64.01 641.48 55.97 Q 633 64.51 624.49 73.09 Z" stroke-linecap="round" />
</g>
		<g transform="matrix(1 0 0 1 -173.41 -298.59)"  >
<path style="stroke: none; stroke-width: 1; stroke-linecap: butt; stroke-dashoffset: 0; stroke-linejoin: miter; stroke-miterlimit: 4; fill: rgb(39,62,116); fill-rule: nonzero; opacity: 1;" vector-effect="non-scaling-stroke"  transform=" translate(-280.09, -73.45)" d="M 272.5 42.55 C 280.1492167991929 40.30267619913739 288.4026291459245 41.593876708492736 295 46.07 C 301.63 50.66 306 57.81 308.87 65.23 C 311.6 72.35000000000001 311.98 80.59 308.69 87.60000000000001 C 304.86 96.13000000000001 296.42 101.67000000000002 287.69 104.30000000000001 C 279.776296526901 106.6899741488846 271.20066894288436 105.25145792198401 264.5 100.41000000000001 C 257.78 95.48000000000002 253.5 87.91000000000001 250.8 80.18 C 247.8 71.64000000000001 248.8 61.52000000000001 254.34 54.18000000000001 C 258.9 48.47 265.54 44.62 272.5 42.55 Z M 273.43 53.4 C 268.37 55.04 263.75 58.79 262.18 64 C 260.25 70 262.44 76.31 265.24 81.63 C 268.04 86.94999999999999 272.19 92 278.17 93.52 C 287.17 96.11 297.62 89.32 298.46000000000004 79.89 C 299.06000000000006 72.28 295.39000000000004 64.99 290.89000000000004 59.1 C 286.93 53.88 279.74 51.12 273.43 53.4 Z" stroke-linecap="round" />
</g>
		<g transform="matrix(1 0 0 1 -232.78 -263.44)"  >
<path style="stroke: none; stroke-width: 1; stroke-linecap: butt; stroke-dashoffset: 0; stroke-linejoin: miter; stroke-miterlimit: 4; fill: rgb(39,62,116); fill-rule: nonzero; opacity: 1;" vector-effect="non-scaling-stroke"  transform=" translate(-220.72, -108.6)" d="M 212.64 76.69 Q 217.64 73.06 222.64 69.46 Q 240.54 94.28999999999999 258.44 119.1 C 255.10999999999999 121.53 251.77 123.92999999999999 248.44 126.33 C 243.21 119.1 238.01 111.87 232.77 104.65 Q 222.94 111.71000000000001 213.14000000000001 118.81 L 228.8 140.49 Q 223.8 144.13 218.8 147.74 L 183 98.12 Q 188 94.49000000000001 193 90.89 C 197.71 97.38 202.39 103.89 207.11 110.41 Q 216.94000000000003 103.33 226.74 96.22999999999999 C 222 89.71 217.32 83.22 212.64 76.69 Z" stroke-linecap="round" />
</g>
		<g transform="matrix(1 0 0 1 258.24 -255.04)"  >
<path style="stroke: none; stroke-width: 1; stroke-linecap: butt; stroke-dashoffset: 0; stroke-linejoin: miter; stroke-miterlimit: 4; fill: rgb(39,62,116); fill-rule: nonzero; opacity: 1;" vector-effect="non-scaling-stroke"  transform=" translate(-711.74, -117)" d="M 711.5 77.83 C 714.74 80.35 717.95 82.91 721.18 85.44 C 716.27 91.8 711.18 98.05 706.27 104.36 Q 715.75 111.88 725.27 119.36 C 730.27 113.1 735.27 106.78 740.27 100.50999999999999 Q 745.1 104.32 749.9399999999999 108.16999999999999 Q 730.9399999999999 132.17 711.9399999999999 156.17 Q 707.0799999999999 152.33999999999997 702.2399999999999 148.5 Q 710.5499999999998 138.03 718.8399999999999 127.5 Q 709.3599999999999 119.99 699.8399999999999 112.5 C 694.28 119.5 688.78 126.5 683.2299999999999 133.44 Q 678.3699999999999 129.63 673.55 125.8 Q 692.51 101.8 711.5 77.83 Z" stroke-linecap="round" />
</g>
		<g transform="matrix(1 0 0 1 -154.89 -261.52)"  >
<path style="stroke: none; stroke-width: 1; stroke-linecap: butt; stroke-dashoffset: 0; stroke-linejoin: miter; stroke-miterlimit: 4; fill: rgb(39,62,116); fill-rule: nonzero; opacity: 1;" vector-effect="non-scaling-stroke"  transform=" translate(-298.61, -110.52)" d="M 290.73 108 Q 295.92 105.3 301.14000000000004 102.63 C 302.94000000000005 106.1 304.73 109.56 306.49000000000007 113.05 Q 301.30000000000007 115.75 296.0900000000001 118.41 Q 293.39 113.21 290.73 108 Z" stroke-linecap="round" />
</g>
		<g transform="matrix(1 0 0 1 -287.56 -216.86)"  >
<path style="stroke: none; stroke-width: 1; stroke-linecap: butt; stroke-dashoffset: 0; stroke-linejoin: miter; stroke-miterlimit: 4; fill: rgb(39,62,116); fill-rule: nonzero; opacity: 1;" vector-effect="non-scaling-stroke"  transform=" translate(-165.94, -155.18)" d="M 139.46 138.68 Q 143.68 134.18 147.93 129.68 Q 170.17000000000002 150.68 192.41 171.68 Q 188.18 176.18 183.94 180.68 Q 161.7 159.67 139.46 138.68 Z" stroke-linecap="round" />
</g>
		<g transform="matrix(1 0 0 1 309.23 -209.29)"  >
<path style="stroke: none; stroke-width: 1; stroke-linecap: butt; stroke-dashoffset: 0; stroke-linejoin: miter; stroke-miterlimit: 4; fill: rgb(39,62,116); fill-rule: nonzero; opacity: 1;" vector-effect="non-scaling-stroke"  transform=" translate(-762.73, -162.75)" d="M 759.52 131.6 C 766.4530079423672 130.1163913065351 773.6909190891474 131.56397353589114 779.52 135.6 C 787.1999999999999 141.03 793.63 149.29999999999998 794.43 158.95 C 795.2299999999999 166.89 791.91 174.70999999999998 786.7399999999999 180.6 C 781.31 186.81 774.3799999999999 192.24 766.1499999999999 193.95 C 758.4491981359274 195.49614515958197 750.4587635642008 193.55984653913154 744.3199999999998 188.66 C 737.2499999999998 183.13 731.4799999999998 175.04 730.9799999999998 165.82999999999998 C 730.4099999999997 158.07 733.7699999999998 150.51 738.8599999999998 144.82999999999998 C 744.36 138.7 751.24 133.18 759.52 131.6 Z M 762.52 143.48 C 757.35 144.91 753.06 148.42 749.41 152.22 C 745.76 156.02 743 160.65 742.9599999999999 165.9 C 742.6399999999999 174.55 750.42 182.63 759.1199999999999 182.47 C 765.2599999999999 182.47 770.5899999999999 178.74 774.8699999999999 174.67 C 778.6699999999998 170.98999999999998 782.2299999999999 166.45999999999998 782.81 161.02999999999997 C 784 150.49 772.84 140.44 762.47 143.48 Z" stroke-linecap="round" />
</g>
		<g transform="matrix(1 0 0 1 -30.66 -54.39)"  >
<path style="stroke: none; stroke-width: 1; stroke-linecap: butt; stroke-dashoffset: 0; stroke-linejoin: miter; stroke-miterlimit: 4; fill: rgb(39,62,116); fill-rule: nonzero; opacity: 1;" vector-effect="non-scaling-stroke"  transform=" translate(-422.84, -317.65)" d="M 488.64 191.49 Q 514.34 170.21 540.22 149.18 Q 509 317.66 477.73 486.12 C 444.73 479.51 412.21000000000004 469.95 382.03000000000003 454.99 C 357.39000000000004 442.75 334.38000000000005 426.62 316.20000000000005 405.83000000000004 C 309.93000000000006 398.72 305.06000000000006 389.65000000000003 305.49000000000007 379.92 C 305.7100000000001 371.31 310.25000000000006 363.67 314.83000000000004 356.66 C 323.83000000000004 343.31 334.71000000000004 331.33000000000004 345.75000000000006 319.66 C 390.2 273.51 439.48 232.42 488.64 191.49 Z M 407 290.81 C 404.25 296.94 405.17 303.9 406.31 310.3 C 400.2 312.51 393.71 315.2 389.77 320.65000000000003 C 387.26155402528826 324.0656162462324 387.2981720084361 328.72423743559864 389.85999999999996 332.1 C 393.85999999999996 337.46000000000004 400.22999999999996 340.1 406.30999999999995 342.3 C 405.17999999999995 348.69 404.23999999999995 355.65000000000003 406.97999999999996 361.77 C 408.6785731903305 365.6878696801945 412.7651427096184 368.0084865030237 417 367.46 C 423.59 366.65999999999997 429.07 362.46 434 358.32 C 438.93 362.5 444.46 366.71 451.1 367.46999999999997 C 455.27442842345994 367.98090922314384 459.293946648912 365.7095366638571 461.01000000000005 361.86999999999995 C 463.79 355.72999999999996 462.87000000000006 348.72999999999996 461.72 342.30999999999995 C 467.8 340.11999999999995 474.24 337.44999999999993 478.20000000000005 332.06999999999994 C 480.7188339391311 328.7105721074815 480.75935602059207 324.10321144537437 478.30000000000007 320.69999999999993 C 474.37000000000006 315.2199999999999 467.8500000000001 312.5199999999999 461.7200000000001 310.30999999999995 C 462.8500000000001 303.93999999999994 463.7800000000001 297.00999999999993 461.0800000000001 290.90999999999997 C 459.5679855344054 287.30160590499815 455.9907235572991 284.9962592975296 452.0800000000001 285.10999999999996 C 445.0800000000001 285.42999999999995 439.1900000000001 289.94999999999993 434.0800000000001 294.29999999999995 C 428.9500000000001 289.97999999999996 423.1400000000001 285.49999999999994 416.1700000000001 285.10999999999996 C 412.2211996209474 284.9018806143584 408.56115190263847 287.17693753849807 407 290.81 Z" stroke-linecap="round" />
</g>
		<g transform="matrix(1 0 0 1 -310.31 -173.08)"  >
<path style="stroke: none; stroke-width: 1; stroke-linecap: butt; stroke-dashoffset: 0; stroke-linejoin: miter; stroke-miterlimit: 4; fill: rgb(39,62,116); fill-rule: nonzero; opacity: 1;" vector-effect="non-scaling-stroke"  transform=" translate(-143.19, -198.97)" d="M 115.62 165.51 C 136.7 171.72 157.75 178.03 178.82 184.26 Q 174.67 189.54 170.48999999999998 194.79 L 156.29 190.37 Q 148.69 199.95000000000002 141.09 209.54000000000002 Q 144.98 215.84000000000003 148.86 222.13000000000002 C 146.15 225.56000000000003 143.42000000000002 228.97000000000003 140.74 232.42000000000002 Q 124.13000000000001 204.09000000000003 107.55000000000001 175.74 C 110.23 172.32 112.94 168.93 115.62 165.51 Z M 122.72 179.62 C 126.91 186.49 131.18 193.31 135.36 200.19 Q 140.53 193.63 145.73000000000002 187.09 C 138.06 184.59 130.39 182.08 122.72 179.62 Z" stroke-linecap="round" />
</g>
		<g transform="matrix(1 0 0 1 278.7 -181.17)"  >
<path style="stroke: none; stroke-width: 1; stroke-linecap: butt; stroke-dashoffset: 0; stroke-linejoin: miter; stroke-miterlimit: 4; fill: rgb(39,62,116); fill-rule: nonzero; opacity: 1;" vector-effect="non-scaling-stroke"  transform=" translate(-732.2, -190.88)" d="M 723.92 190.61 C 726.77 187.93 729.61 185.25 732.4799999999999 182.61 C 735.1499999999999 185.45000000000002 737.8299999999999 188.28 740.4799999999999 191.14000000000001 Q 736.2199999999999 195.14000000000001 731.9399999999999 199.14000000000001 Q 727.92 194.9 723.92 190.61 Z" stroke-linecap="round" />
</g>
		<g transform="matrix(1 0 0 1 353.53 -153.63)"  >
<path style="stroke: none; stroke-width: 1; stroke-linecap: butt; stroke-dashoffset: 0; stroke-linejoin: miter; stroke-miterlimit: 4; fill: rgb(39,62,116); fill-rule: nonzero; opacity: 1;" vector-effect="non-scaling-stroke"  transform=" translate(-807.03, -218.42)" d="M 796 192.71 C 802.73 189.25 810.73 187.65 818.13 189.85 C 828.53 192.76999999999998 836.13 202.49 838.21 212.85 C 839.71 220.04999999999998 836.82 227.35999999999999 831.97 232.65 Q 827.47 228.3 822.97 223.91 C 824.36 222.02 825.9 220.12 826.46 217.79 C 828.57 209.91 822.07 201.22 814.02 200.62 C 808.25 200.17000000000002 802.92 203.05 798.22 206.05 C 793.9300000000001 208.91000000000003 789.5400000000001 212.27 787.5 217.17000000000002 C 784.59 224.05 788.6 232.97000000000003 795.78 235.17000000000002 C 799.51 236.36 803.4599999999999 235.41000000000003 807.11 234.36 Q 808.6800000000001 240.42000000000002 810.28 246.48000000000002 C 803.13 248.70000000000002 794.8299999999999 248.82000000000002 788.4499999999999 244.48000000000002 C 778.9599999999999 237.92000000000002 773.1099999999999 225.39000000000001 776.3699999999999 213.98000000000002 C 778.91 204.12 787.22 197.09 796 192.71 Z" stroke-linecap="round" />
</g>
		<g transform="matrix(1 0 0 1 -285.38 -156.75)"  >
<path style="stroke: none; stroke-width: 1; stroke-linecap: butt; stroke-dashoffset: 0; stroke-linejoin: miter; stroke-miterlimit: 4; fill: rgb(39,62,116); fill-rule: nonzero; opacity: 1;" vector-effect="non-scaling-stroke"  transform=" translate(-168.13, -215.3)" d="M 167.19 207.06 Q 171.78 210.69 176.35999999999999 214.34 Q 172.73999999999998 218.94 169.08999999999997 223.53 C 166.02999999999997 221.12 162.97999999999996 218.67 159.89 216.28 Q 163.52 211.65 167.19 207.06 Z" stroke-linecap="round" />
</g>
		<g transform="matrix(1 0 0 1 -358.68 -123.74)"  >
<path style="stroke: none; stroke-width: 1; stroke-linecap: butt; stroke-dashoffset: 0; stroke-linejoin: miter; stroke-miterlimit: 4; fill: rgb(39,62,116); fill-rule: nonzero; opacity: 1;" vector-effect="non-scaling-stroke"  transform=" translate(-94.82, -248.3)" d="M 81.79 218.64 C 88.54 214.64 97.09 214.91 104.26 217.64 C 111.04 220.27999999999997 117.55000000000001 224 122.57000000000001 229.32999999999998 C 126.96000000000001 233.99999999999997 130.13 240.32999999999998 129.57 246.83999999999997 C 129.29 251.74999999999997 127.24 256.32 124.86 260.53 Q 119 270.79 113.1 281 C 105.36 276.61 97.64999999999999 272.16 89.91999999999999 267.75 L 86.75999999999999 273.23 L 80 269.41 C 81 267.56 82.08 265.72 83.12 263.88000000000005 Q 71.61 257.24 60 250.62 Q 65.76 240.51 71.56 230.43 C 74.21 225.94 77.16 221.31 81.79 218.64 Z M 84.13 231 C 80.36 235.15 78 240.35 75.13 245.12 C 79.85 247.84 84.59 250.53 89.31 253.25 C 91.49000000000001 249.47 93.64 245.67 95.83 241.89 Q 99.19 243.79999999999998 102.53999999999999 245.73999999999998 C 100.38999999999999 249.52999999999997 98.19999999999999 253.30999999999997 96.05 257.10999999999996 Q 103.14 261.18999999999994 110.27 265.24999999999994 C 112.97999999999999 260.18999999999994 116.46 255.45999999999995 118.19 249.94999999999993 C 119.42999999999999 246.05999999999995 117.74 241.88999999999993 114.91 239.16999999999993 C 110.25182607143803 234.86166357807602 104.82388423559355 231.46919993067323 98.90999999999997 229.1699999999999 C 94.16 227.09 88 227 84.13 231 Z" stroke-linecap="round" />
</g>
		<g transform="matrix(1 0 0 1 396.13 -86.15)"  >
<path style="stroke: none; stroke-width: 1; stroke-linecap: butt; stroke-dashoffset: 0; stroke-linejoin: miter; stroke-miterlimit: 4; fill: rgb(39,62,116); fill-rule: nonzero; opacity: 1;" vector-effect="non-scaling-stroke"  transform=" translate(-849.63, -285.89)" d="M 856.57 264.4 Q 861.38 262.51 866.23 260.67999999999995 Q 874.96 283.35999999999996 883.6700000000001 306.06999999999994 L 874 309.79 Q 870.73 301.33000000000004 867.5 292.88 C 851.66 298.88 835.86 305.05 820.03 311.1 Q 817.79 305.35 815.5899999999999 299.59000000000003 Q 839.3 290.46000000000004 863.04 281.35 C 860.93 275.69 858.73 270.05 856.57 264.4 Z" stroke-linecap="round" />
</g>
		<g transform="matrix(1 0 0 1 -33.19 -72.18)"  >
<path style="stroke: none; stroke-width: 1; stroke-linecap: butt; stroke-dashoffset: 0; stroke-linejoin: miter; stroke-miterlimit: 4; fill: rgb(39,62,116); fill-rule: nonzero; opacity: 1;" vector-effect="non-scaling-stroke"  transform=" translate(-420.31, -299.87)" d="M 410.8 294.55 C 412.24565948299573 291.8953385796543 415.04772754771653 290.2649743549268 418.07 290.32 C 423.26 290.40999999999997 427.74 293.45 431.77 296.42 C 428.5656947855162 299.7219341949027 425.57623809668087 303.225777844722 422.82000000000005 306.91 C 418.2410599679712 307.455678533951 413.7017690739064 308.2940611788445 409.22999999999996 309.42 C 408.74 304.47 408.28 299.07 410.8 294.55 Z" stroke-linecap="round" />
</g>
		<g transform="matrix(1 0 0 1 -5.77 -72.17)"  >
<path style="stroke: none; stroke-width: 1; stroke-linecap: butt; stroke-dashoffset: 0; stroke-linejoin: miter; stroke-miterlimit: 4; fill: rgb(39,62,116); fill-rule: nonzero; opacity: 1;" vector-effect="non-scaling-stroke"  transform=" translate(-447.73, -299.87)" d="M 436.27 296.42 C 440.32 293.42 444.83 290.36 450.07 290.32 C 453.0999070112972 290.3083176982917 455.8855591032025 291.9804795349264 457.3 294.65999999999997 C 459.73 299.16999999999996 459.3 304.51 458.78000000000003 309.42999999999995 C 454.3162699515657 308.2958435984276 449.7833137984918 307.45405660463643 445.21000000000004 306.90999999999997 C 442.4567481518602 303.226265810542 439.4706498913807 299.72244357872654 436.27 296.42 Z" stroke-linecap="round" />
</g>
		<g transform="matrix(1 0 0 1 -19.48 -69.56)"  >
<path style="stroke: none; stroke-width: 1; stroke-linecap: butt; stroke-dashoffset: 0; stroke-linejoin: miter; stroke-miterlimit: 4; fill: rgb(39,62,116); fill-rule: nonzero; opacity: 1;" vector-effect="non-scaling-stroke"  transform=" translate(-434.02, -302.48)" d="M 426.32 306.6 C 428.7136228453664 303.6965902676269 431.2852386443691 300.9446273866163 434.02 298.36000000000007 C 436.7495770952101 300.9497774494603 439.32088804708957 303.70141410445865 441.7199999999999 306.6 C 436.59119710521736 306.2949999919551 431.4488028947826 306.2949999919551 426.32 306.6 Z" stroke-linecap="round" />
</g>
		<g transform="matrix(1 0 0 1 -391.12 -40.27)"  >
<path style="stroke: none; stroke-width: 1; stroke-linecap: butt; stroke-dashoffset: 0; stroke-linejoin: miter; stroke-miterlimit: 4; fill: rgb(39,62,116); fill-rule: nonzero; opacity: 1;" vector-effect="non-scaling-stroke"  transform=" translate(-62.38, -331.78)" d="M 42.1 305.87 C 46.17 302.87 51.29 301.87 56.260000000000005 302.01 Q 55.74 308.2 55.14000000000001 314.4 C 50.92000000000001 314.67999999999995 46.66000000000001 316.48999999999995 44.31000000000001 320.15 C 40.71000000000001 325.75 39.92000000000001 333.59 43.71000000000001 339.31 C 46.36000000000001 343.41 50.900000000000006 345.81 55.43000000000001 347.31 C 60.43000000000001 348.85 65.78 349.84 70.93 348.6 C 75.99330036698208 347.3128084351895 80.10363447944032 343.62471773610196 81.93 338.73 C 84.2 333.20000000000005 83.46000000000001 326.98 81.60000000000001 321.44 L 74 319.27 C 72.71 323.81 71.44 328.34999999999997 70.15 332.88 L 60.220000000000006 330.09 Q 63.84 317.27 67.46000000000001 304.44 C 75.31 306.64 83.14000000000001 308.89 90.99000000000001 311.06 C 96.09725657651607 322.7230265165618 95.54387367058024 336.0890683045987 89.49000000000001 347.29 C 85.49000000000001 354.54 78.27000000000001 360.04 70.00000000000001 361.15000000000003 C 57.91000000000001 362.93 44.58000000000001 358.85 36.530000000000015 349.41 C 31.148861016600264 342.81559630762524 29.10860108481303 334.10851956437415 31 325.81 C 32.61 318.32 35.62 310.45 42.1 305.87 Z" stroke-linecap="round" />
</g>
		<g transform="matrix(1 0 0 1 -19.48 -45.73)"  >
<path style="stroke: none; stroke-width: 1; stroke-linecap: butt; stroke-dashoffset: 0; stroke-linejoin: miter; stroke-miterlimit: 4; fill: rgb(39,62,116); fill-rule: nonzero; opacity: 1;" vector-effect="non-scaling-stroke"  transform=" translate(-434.02, -326.31)" d="M 424.28 309.35 C 430.7587718127774 308.7350111974689 437.2812281872225 308.73501119746885 443.75999999999993 309.34999999999997 C 447.5858611995546 314.6507011145985 450.87536522801946 320.3185634528496 453.58 326.27 C 450.90135564296145 332.2661247992908 447.5998851704994 337.9640941426263 443.72999999999996 343.27000000000004 C 437.3485721512926 343.92344369668996 430.9157579371557 343.89662633675607 424.53999999999996 343.19000000000005 C 420.2 338.2900000000001 417.28999999999996 332.19000000000005 414.46999999999997 326.26000000000005 C 417.16581670395783 320.30921892280816 420.45229897855734 314.64414091429865 424.2799999999999 309.35 Z M 430.4 319.28000000000003 C 424.97999999999996 321.76000000000005 424.71 330.28000000000003 429.95 333.09000000000003 C 434.68 336.22 441.71 332.55 441.9 326.91 C 442.62 321 435.56 316.29 430.4 319.28 Z" stroke-linecap="round" />
</g>
		<g transform="matrix(1 0 0 1 -38.18 -55.6)"  >
<path style="stroke: none; stroke-width: 1; stroke-linecap: butt; stroke-dashoffset: 0; stroke-linejoin: miter; stroke-miterlimit: 4; fill: rgb(39,62,116); fill-rule: nonzero; opacity: 1;" vector-effect="non-scaling-stroke"  transform=" translate(-415.32, -316.45)" d="M 409.82 312.33 C 413.4281881552052 311.25002235385796 417.10254846707176 310.40491948212866 420.82 309.8 C 417.9928204306001 314.0701332583766 415.4280815252095 318.50833378606427 413.14 323.09000000000003 C 411.7953172147452 319.5811428062723 410.68618848974785 315.98649669754593 409.82 312.33 Z" stroke-linecap="round" />
</g>
		<g transform="matrix(1 0 0 1 -0.76 -55.59)"  >
<path style="stroke: none; stroke-width: 1; stroke-linecap: butt; stroke-dashoffset: 0; stroke-linejoin: miter; stroke-miterlimit: 4; fill: rgb(39,62,116); fill-rule: nonzero; opacity: 1;" vector-effect="non-scaling-stroke"  transform=" translate(-452.74, -316.45)" d="M 447.24 309.8 C 450.9570289728305 310.4070721110923 454.63125148516457 311.2521432889291 458.24 312.33 C 457.3836093455584 315.9890479049558 456.28451119962233 319.58700748906875 454.95 323.09999999999997 C 452.6544663742342 318.5131346888749 450.07962765652127 314.07145441058935 447.24 309.8 Z" stroke-linecap="round" />
</g>
		<g transform="matrix(1 0 0 1 -50.84 -45.75)"  >
<path style="stroke: none; stroke-width: 1; stroke-linecap: butt; stroke-dashoffset: 0; stroke-linejoin: miter; stroke-miterlimit: 4; fill: rgb(39,62,116); fill-rule: nonzero; opacity: 1;" vector-effect="non-scaling-stroke"  transform=" translate(-402.66, -326.29)" d="M 395 321.87 C 397.73 317.58 402.48 315.27 407 313.32 C 408.2459601252417 317.73470417166504 409.78607031177364 322.06104406658665 411.61 326.27 C 409.80613789601233 330.5038935193513 408.26651763358035 334.8455558646042 407 339.27 C 402.56 337.34 397.89 335.08 395.14 330.91999999999996 C 393.28978751522294 328.20211931892675 393.23474185569086 324.6438106134569 395 321.87 Z" stroke-linecap="round" />
</g>
		<g transform="matrix(1 0 0 1 11.87 -45.73)"  >
<path style="stroke: none; stroke-width: 1; stroke-linecap: butt; stroke-dashoffset: 0; stroke-linejoin: miter; stroke-miterlimit: 4; fill: rgb(39,62,116); fill-rule: nonzero; opacity: 1;" vector-effect="non-scaling-stroke"  transform=" translate(-465.37, -326.31)" d="M 456.42 326.25 C 458.23778993180224 322.0465493060651 459.77450257620313 317.72705050343404 461.02000000000004 313.32 C 465.53000000000003 315.27 470.3 317.59 473.02000000000004 321.89 C 474.765965444437 324.6070220665311 474.765965444437 328.0929779334689 473.02000000000004 330.81 C 470.28000000000003 335.06 465.54 337.35 461.02000000000004 339.31 C 459.74911109162383 334.8686278961006 458.21302059275047 330.50746661016876 456.42 326.25 Z" stroke-linecap="round" />
</g>
		<g transform="matrix(1 0 0 1 414.81 -17.37)"  >
<path style="stroke: none; stroke-width: 1; stroke-linecap: butt; stroke-dashoffset: 0; stroke-linejoin: miter; stroke-miterlimit: 4; fill: rgb(39,62,116); fill-rule: nonzero; opacity: 1;" vector-effect="non-scaling-stroke"  transform=" translate(-868.31, -354.67)" d="M 851.43 330.51 C 863.9599999999999 327.34999999999997 876.6099999999999 324.67 889.1999999999999 321.73 C 890.1299999999999 325.73 891.04 329.73 891.9599999999999 333.73 C 879.53 336.63 867.0699999999999 339.35 854.66 342.34000000000003 C 851.0699999999999 343.22 847.04 344.43 845.11 347.89000000000004 C 842.85 352.04 843.89 357.15000000000003 845.66 361.29 C 847.0014698890245 364.71255783872937 850.4256457950905 366.8531755166615 854.0899999999999 366.56 C 859.9399999999999 366.1 865.6099999999999 364.39 871.3399999999999 363.18 Q 884.3399999999999 360.18 897.3399999999999 357.18 C 898.2499999999999 361.18 899.18 365.18 900.0899999999999 369.23 C 892.9699999999999 370.87 885.8399999999999 372.46000000000004 878.7399999999999 374.13 C 880.18 376.85 881.7399999999999 379.84 884.6699999999998 381.21999999999997 C 886.5799999999998 382.21999999999997 888.7899999999998 381.7 890.8599999999999 381.71999999999997 C 890.4499999999999 379.79999999999995 890.0299999999999 377.89 889.6299999999999 375.98999999999995 L 901.0399999999998 373.38999999999993 C 901.9199999999998 377.19999999999993 902.7899999999998 380.99999999999994 903.6599999999999 384.81999999999994 C 897.8699999999999 385.91999999999996 892.0899999999998 388.2199999999999 886.1199999999999 387.4599999999999 C 879.9299999999998 386.36999999999995 876.3299999999999 380.5499999999999 874.1199999999999 375.18999999999994 C 866.4799999999999 376.73999999999995 858.8399999999999 379.18999999999994 850.9699999999999 378.7799999999999 C 843.0999999999999 378.3699999999999 837.5799999999999 371.5199999999999 835.3999999999999 364.50999999999993 C 832.9599999999998 356.7699999999999 831.3999999999999 347.7099999999999 835.4799999999999 340.25999999999993 C 838.66 334.43 845.33 332.11 851.43 330.51 Z" stroke-linecap="round" />
</g>
		<g transform="matrix(1 0 0 1 -38.19 -35.89)"  >
<path style="stroke: none; stroke-width: 1; stroke-linecap: butt; stroke-dashoffset: 0; stroke-linejoin: miter; stroke-miterlimit: 4; fill: rgb(39,62,116); fill-rule: nonzero; opacity: 1;" vector-effect="non-scaling-stroke"  transform=" translate(-415.31, -336.16)" d="M 409.81 340.27 C 410.6896296784611 336.6128673918468 411.7916790732468 333.0128393688801 413.11 329.49000000000007 C 415.38765386958335 334.0921310300773 417.9561892101181 338.54448162686907 420.80000000000007 342.82 C 417.0849407135988 342.2107594318126 413.4137556092818 341.3589375923214 409.81 340.27 Z" stroke-linecap="round" />
</g>
		<g transform="matrix(1 0 0 1 -0.79 -35.87)"  >
<path style="stroke: none; stroke-width: 1; stroke-linecap: butt; stroke-dashoffset: 0; stroke-linejoin: miter; stroke-miterlimit: 4; fill: rgb(39,62,116); fill-rule: nonzero; opacity: 1;" vector-effect="non-scaling-stroke"  transform=" translate(-452.71, -336.17)" d="M 454.93 329.52 C 456.27500593216934 333.0317098875708 457.357970417217 336.6382490214179 458.17 340.30999999999995 C 454.57912033800073 341.3502094029179 450.93357909745777 342.1914881507355 447.25 342.83 C 450.06197199352334 338.54357209070974 452.62616964074505 334.0996305953294 454.93 329.52 Z" stroke-linecap="round" />
</g>
		<g transform="matrix(1 0 0 1 -33.19 -19.29)"  >
<path style="stroke: none; stroke-width: 1; stroke-linecap: butt; stroke-dashoffset: 0; stroke-linejoin: miter; stroke-miterlimit: 4; fill: rgb(39,62,116); fill-rule: nonzero; opacity: 1;" vector-effect="non-scaling-stroke"  transform=" translate(-420.31, -352.76)" d="M 409.22 343.21 C 413.7068709842002 344.3153575387897 418.25466811629366 345.15680017997 422.84000000000003 345.72999999999996 C 425.5919786418147 349.40871889536277 428.5746393035926 352.909086614896 431.77000000000004 356.2099999999999 C 427.77000000000004 359.21 423.25000000000006 362.21 418.04 362.29999999999995 C 414.7884669356298 362.33005009181375 411.82483493110584 360.44053868152207 410.48 357.47999999999996 C 408.33 353.05 408.76 348 409.22 343.21 Z" stroke-linecap="round" />
</g>
		<g transform="matrix(1 0 0 1 -5.78 -19.29)"  >
<path style="stroke: none; stroke-width: 1; stroke-linecap: butt; stroke-dashoffset: 0; stroke-linejoin: miter; stroke-miterlimit: 4; fill: rgb(39,62,116); fill-rule: nonzero; opacity: 1;" vector-effect="non-scaling-stroke"  transform=" translate(-447.72, -352.76)" d="M 445.19 345.73 C 449.76920153728145 345.1598336374624 454.310521424622 344.3183537759846 458.79 343.21000000000004 C 459.28000000000003 347.94000000000005 459.69 353.01000000000005 457.58000000000004 357.44000000000005 C 456.2414319975013 360.3975070141392 453.296322421264 362.2983347087625 450.05000000000007 362.30000000000007 C 444.82000000000005 362.25000000000006 440.32000000000005 359.1700000000001 436.26000000000005 356.20000000000005 C 439.460051479579 352.90687726356674 442.44298806016053 349.40952608790167 445.19 345.72999999999996 Z" stroke-linecap="round" />
</g>
		<g transform="matrix(1 0 0 1 -19.49 -21.94)"  >
<path style="stroke: none; stroke-width: 1; stroke-linecap: butt; stroke-dashoffset: 0; stroke-linejoin: miter; stroke-miterlimit: 4; fill: rgb(39,62,116); fill-rule: nonzero; opacity: 1;" vector-effect="non-scaling-stroke"  transform=" translate(-434.01, -350.11)" d="M 426.33 346 C 431.44603408506066 346.28499462794565 436.5739659149394 346.28499462794565 441.69 346 C 439.31429374819186 348.90028895900906 436.75220390588544 351.6427606155065 434.02 354.21 C 431.28118657830845 351.6431447732148 428.71241907903243 348.9006764807497 426.33 346 Z" stroke-linecap="round" />
</g>
		<g transform="matrix(1 0 0 1 370.95 -10.12)"  >
<path style="stroke: none; stroke-width: 1; stroke-linecap: butt; stroke-dashoffset: 0; stroke-linejoin: miter; stroke-miterlimit: 4; fill: rgb(39,62,116); fill-rule: nonzero; opacity: 1;" vector-effect="non-scaling-stroke"  transform=" translate(-824.45, -361.92)" d="M 817.43 357.52 Q 823.15 356.19 828.87 354.9 L 831.48 366.32 Q 825.76 367.65 820.0500000000001 368.94 Q 818.71 363.23 817.43 357.52 Z" stroke-linecap="round" />
</g>
		<g transform="matrix(1 0 0 1 -404.81 27.49)"  >
<path style="stroke: none; stroke-width: 1; stroke-linecap: butt; stroke-dashoffset: 0; stroke-linejoin: miter; stroke-miterlimit: 4; fill: rgb(39,62,116); fill-rule: nonzero; opacity: 1;" vector-effect="non-scaling-stroke"  transform=" translate(-48.69, -399.53)" d="M 21.55 371.46 C 41.769999999999996 374.15999999999997 62 376.73999999999995 82.2 379.54999999999995 C 81.66 383.60999999999996 81.11 387.67999999999995 80.59 391.74999999999994 C 66.35 398.2 52.06 404.56 37.81 411 C 50.980000000000004 412.78 64.15 414.49 77.32 416.25 Q 76.58999999999999 421.92 75.83999999999999 427.61 C 55.609999999999985 424.98 35.39999999999999 422.26 15.179999999999993 419.61 Q 15.949999999999992 413.61 16.749999999999993 407.7 Q 38.63999999999999 397.95 60.50999999999999 388.21999999999997 C 47.02999999999999 386.41999999999996 33.50999999999999 384.65999999999997 20.04999999999999 382.85999999999996 Q 20.78 377.14 21.55 371.46 Z" stroke-linecap="round" />
</g>
		<g transform="matrix(1 0 0 1 -0.87 144.68)"  >
<path style="stroke: none; stroke-width: 1; stroke-linecap: butt; stroke-dashoffset: 0; stroke-linejoin: miter; stroke-miterlimit: 4; fill: rgb(39,62,116); fill-rule: nonzero; opacity: 1;" vector-effect="non-scaling-stroke"  transform=" translate(-452.63, -516.73)" d="M 291 400.48 C 308.13 426.42 333.3 446 360.45 460.6 C 377.34 469.75 395.14 477.08000000000004 413.23 483.48 C 433.09000000000003 489.86 453.40000000000003 494.68 473.66 499.62 C 490.81 503.9 508.33000000000004 506.99 524.96 513.14 C 551.57 522.6999999999999 576.47 538.62 593.85 561.2 C 609.25 581.6 614.9300000000001 607.7900000000001 614.3000000000001 632.97 L 604.9200000000001 632.97 C 605.72 614.44 602.59 595.46 593.9200000000001 578.9200000000001 C 581.9200000000001 555.6700000000001 560.4300000000001 538.8000000000001 537.1600000000001 527.7700000000001 C 520.1600000000001 520.2100000000002 502.1600000000001 515.3800000000001 484.07000000000005 511.05000000000007 C 467.18000000000006 506.94000000000005 449.94000000000005 504.4000000000001 433.26000000000005 499.45000000000005 C 413.69116555308574 494.0606537647248 394.5703596607698 487.1599117885507 376.07 478.81000000000006 C 364.02000000000004 473.2800000000001 352.07000000000005 467.40000000000003 341.07000000000005 459.9700000000001 C 326.20000000000005 450.18000000000006 311.27000000000004 439.9700000000001 299.4200000000001 426.55000000000007 C 296.68000000000006 423.88000000000005 293.69000000000005 421.1500000000001 292.6000000000001 417.3400000000001 C 291.21102049786043 411.8343010541628 290.6714607347785 406.1486900506877 291 400.48 Z" stroke-linecap="round" />
</g>
		<g transform="matrix(1 0 0 1 422.1 82.02)"  >
<path style="stroke: none; stroke-width: 1; stroke-linecap: butt; stroke-dashoffset: 0; stroke-linejoin: miter; stroke-miterlimit: 4; fill: rgb(39,62,116); fill-rule: nonzero; opacity: 1;" vector-effect="non-scaling-stroke"  transform=" translate(-875.6, -454.06)" d="M 845.84 428.76 L 907 430.84 C 906.87 434.84 906.72 438.84 906.61 442.84 C 892.74 450.77 878.8100000000001 458.59999999999997 864.9200000000001 466.5 Q 885.34 467.22 905.7400000000001 467.9 L 905.3500000000001 479.37 L 844.2000000000002 477.3 C 844.3200000000002 473.21000000000004 844.5000000000001 469.13 844.5600000000002 465.05 C 858.0400000000002 457.05 871.7500000000002 449.47 885.3100000000002 441.62 C 872.0200000000002 441.14 858.7400000000001 440.71 845.4600000000002 440.25 Q 845.61 434.48 845.84 428.76 Z" stroke-linecap="round" />
</g>
		<g transform="matrix(1 0 0 1 -7.74 160.92)"  >
<path style="stroke: none; stroke-width: 1; stroke-linecap: butt; stroke-dashoffset: 0; stroke-linejoin: miter; stroke-miterlimit: 4; fill: rgb(39,62,116); fill-rule: nonzero; opacity: 1;" vector-effect="non-scaling-stroke"  transform=" translate(-445.76, -532.96)" d="M 294.44 433 C 316.55 455.18 343.28 472.40999999999997 371.82 485.12 C 403.97203900403997 499.3533271579941 437.66750915292414 509.80660765931606 472.2299999999998 516.27 C 489.23 519.71 506.09000000000003 523.9 522.38 529.88 C 534.62 534.4 546.6 540.03 557.06 547.88 C 569.086615498694 555.7643255236339 578.9275025171936 566.5580002751376 585.67 579.26 C 594.3299999999999 595.68 597.27 614.52 597.0799999999999 632.92 L 321.7099999999999 632.5999999999999 C 315.2299999999999 592.0899999999999 310.1699999999999 551.3699999999999 304.6499999999999 510.7199999999999 Q 299.49 471.88 294.44 433 Z M 374.69 581.8199999999999 Q 374.69 600.3799999999999 374.69 618.93 L 383.18 618.93 C 383.18 615.1899999999999 383.18 611.4599999999999 383.18 607.7299999999999 Q 386.57 604.6099999999999 390 601.5299999999999 Q 395.77 610.2099999999998 401.51 618.9199999999998 C 405.15999999999997 618.9199999999998 408.82 618.9199999999998 412.51 618.9199999999998 C 406.99 611.3599999999999 401.42 603.8299999999998 395.9 596.2699999999999 Q 403.78999999999996 589.0399999999998 411.69 581.8199999999998 Q 406.01 581.8199999999998 400.32 581.8199999999998 L 383.23 598.2299999999998 C 383.23 592.7499999999998 383.23 587.2299999999998 383.23 581.8099999999998 Z M 416.85 581.8199999999999 L 416.85 618.92 L 425.33000000000004 618.92 C 425.33000000000004 613.51 425.33000000000004 608.0999999999999 425.33000000000004 602.6899999999999 C 430.83000000000004 602.6899999999999 436.33000000000004 602.6899999999999 441.83000000000004 602.6899999999999 C 441.83000000000004 608.0899999999999 441.83000000000004 613.4899999999999 441.83000000000004 618.9 L 450.32000000000005 618.9 Q 450.32000000000005 600.35 450.32000000000005 581.8 L 441.84000000000003 581.8 C 441.84000000000003 586.67 441.84000000000003 591.54 441.84000000000003 596.41 L 425.34 596.41 L 425.34 581.81 Z M 456.15000000000003 581.8199999999999 Q 456.15000000000003 584.9399999999999 456.15000000000003 588.0799999999999 L 468.56000000000006 588.0799999999999 L 468.56000000000006 618.91 L 477.05000000000007 618.91 Q 477.05000000000007 603.49 477.05000000000007 588.0699999999999 L 489.4000000000001 588.0699999999999 Q 489.4000000000001 584.93 489.4000000000001 581.81 Z M 494.90000000000003 581.8199999999999 Q 494.90000000000003 600.3799999999999 494.90000000000003 618.92 L 502.75000000000006 618.92 Q 502.75000000000006 606.74 502.75000000000006 594.56 C 508.44000000000005 602.67 514.0500000000001 610.8499999999999 519.75 618.9499999999999 C 522.56 618.9499999999999 525.37 618.9499999999999 528.19 618.9499999999999 Q 528.19 600.4 528.19 581.8499999999999 L 520.35 581.8499999999999 C 520.35 590.0799999999999 520.35 598.3199999999999 520.35 606.55 C 514.5 598.39 508.89000000000004 590.06 503.12 581.8499999999999 Z" stroke-linecap="round" />
</g>
		<g transform="matrix(1 0 0 1 -407.99 99.51)"  >
<path style="stroke: none; stroke-width: 1; stroke-linecap: butt; stroke-dashoffset: 0; stroke-linejoin: miter; stroke-miterlimit: 4; fill: rgb(39,62,116); fill-rule: nonzero; opacity: 1;" vector-effect="non-scaling-stroke"  transform=" translate(-45.51, -471.56)" d="M 12.8 438.64 C 18.15 438.32 23.54 437.32 28.89 438.12 C 33.54 438.87 36.83 442.66 38.89 446.62 C 47.82 445.16 57.68 445.32 65.51 450.4 C 72.3 454.59 76.6 462 77.68 469.81 C 79.17 478.63 77.68 488.49 71.47000000000001 495.28 C 64.73000000000002 503.02 53.930000000000014 505.53999999999996 44.05000000000001 505.28 C 35.390000000000015 505.21 26.440000000000012 501.83 20.970000000000013 494.9 C 15.020000000000014 487.2 13.750000000000014 476.65 15.690000000000012 467.32 C 17.690000000000012 458.18 24.98000000000001 450.96999999999997 33.69000000000001 447.92 C 31.737655136393865 445.0691724911866 28.4519306103591 443.4282007486099 25 443.58 Q 25.21 446.47999999999996 25.44 449.38 Q 19.6 449.88 13.760000000000002 450.33 Q 13.27 444.48 12.8 438.64 Z M 39.510000000000005 459.56 C 35.59466803262323 460.3163887706741 32.00022353697649 462.2408634181979 29.199999999999992 465.08 C 24.450000000000003 470.25 24.400000000000002 478.5 27.570000000000004 484.49 C 30.570000000000004 489.97 37.040000000000006 492.49 43.040000000000006 492.59000000000003 C 49.980000000000004 492.8 57.61000000000001 491.59000000000003 62.89000000000001 486.72 C 70.16000000000001 480.11 68.89000000000001 466.59000000000003 60.370000000000005 461.59000000000003 C 54.15 457.82 46.39 458.16 39.51 459.56 Z" stroke-linecap="round" />
</g>
		<g transform="matrix(1 0 0 1 -447.19 109.81)"  >
<path style="stroke: none; stroke-width: 1; stroke-linecap: butt; stroke-dashoffset: 0; stroke-linejoin: miter; stroke-miterlimit: 4; fill: rgb(39,62,116); fill-rule: nonzero; opacity: 1;" vector-effect="non-scaling-stroke"  transform=" translate(-6.31, -481.85)" d="M 12 471.92 C 12.21 474.36 12.41 476.81 12.62 479.26 Q 6.889999999999999 485.53 1.1099999999999994 491.78 Q 0.51 485.23 0 478.69 C 4 476.41 8 474.19 12 471.92 Z" stroke-linecap="round" />
</g>
		<g transform="matrix(1 0 0 1 416.01 147.59)"  >
<path style="stroke: none; stroke-width: 1; stroke-linecap: butt; stroke-dashoffset: 0; stroke-linejoin: miter; stroke-miterlimit: 4; fill: rgb(39,62,116); fill-rule: nonzero; opacity: 1;" vector-effect="non-scaling-stroke"  transform=" translate(-869.51, -519.63)" d="M 843.79 490.07 Q 873.9 495.53 903.98 501.07 Q 902.87 507.13 901.77 513.21 C 893.87 511.79 885.98 510.33000000000004 878.09 508.91 Q 875.9 520.8000000000001 873.75 532.72 C 881.63 534.1700000000001 889.53 535.58 897.43 537.0400000000001 L 895.2099999999999 549.19 C 875.15 545.5500000000001 855.1099999999999 541.85 835.05 538.2600000000001 Q 836.12 532.1500000000001 837.25 526.07 C 846.02 527.6500000000001 854.78 529.2700000000001 863.56 530.85 Q 865.7199999999999 518.94 867.89 507.05 Q 854.74 504.64 841.58 502.26 Q 842.66 496.14 843.79 490.07 Z" stroke-linecap="round" />
</g>
		<g transform="matrix(1 0 0 1 -397.92 178.55)"  >
<path style="stroke: none; stroke-width: 1; stroke-linecap: butt; stroke-dashoffset: 0; stroke-linejoin: miter; stroke-miterlimit: 4; fill: rgb(39,62,116); fill-rule: nonzero; opacity: 1;" vector-effect="non-scaling-stroke"  transform=" translate(-55.58, -550.59)" d="M 20.27 520.41 C 26.13 519.3 32 516.92 38 517.82 C 44.08 519.0100000000001 47.57 524.75 49.78 530.0400000000001 C 58.410000000000004 528.45 67.27 524.95 76.08 527.0400000000001 C 84.63 529.58 88.66 538.7300000000001 90.08 546.82 C 91.6 554.1500000000001 91.39999999999999 562.9100000000001 85.65 568.46 C 80.75 573.2800000000001 73.65 574.34 67.24000000000001 576.1 L 34.650000000000006 583.5600000000001 C 33.730000000000004 579.5600000000001 32.800000000000004 575.5600000000001 31.900000000000006 571.5100000000001 C 44.900000000000006 568.5100000000001 57.900000000000006 565.7200000000001 70.82000000000001 562.5100000000001 C 74.82000000000001 561.6300000000001 78.98 559.07 79.76 554.7400000000001 C 80.48 549.9200000000001 79.36 544.4700000000001 75.98 540.8300000000002 C 72.82000000000001 537.6900000000002 67.98 538.7700000000002 64.13000000000001 539.5100000000001 C 51.56000000000001 542.2300000000001 39.06000000000001 545.2600000000001 26.500000000000007 548.0500000000001 Q 25.120000000000008 542.0500000000001 23.750000000000007 536.0500000000001 C 30.860000000000007 534.4000000000001 37.99000000000001 532.8100000000001 45.10000000000001 531.1400000000001 C 43.73000000000001 528.5600000000001 42.290000000000006 525.7600000000001 39.63000000000001 524.2900000000001 C 37.63000000000001 523.0100000000001 35.17000000000001 523.5000000000001 32.95000000000001 523.6100000000001 Q 33.58000000000001 526.4300000000002 34.23000000000001 529.2600000000001 Q 28.530000000000012 530.6000000000001 22.81000000000001 531.8800000000001 Q 21.57 526.13 20.27 520.41 Z" stroke-linecap="round" />
</g>
		<g transform="matrix(1 0 0 1 405.74 192.75)"  >
<path style="stroke: none; stroke-width: 1; stroke-linecap: butt; stroke-dashoffset: 0; stroke-linejoin: miter; stroke-miterlimit: 4; fill: rgb(39,62,116); fill-rule: nonzero; opacity: 1;" vector-effect="non-scaling-stroke"  transform=" translate(-859.24, -564.8)" d="M 831.45 550.54 Q 860.9100000000001 558.8199999999999 890.37 567.16 Q 888.7 573.16 887.01 579.06 Q 857.55 570.77 828.1 562.4399999999999 C 829.19 558.47 830.32 554.5 831.45 550.54 Z" stroke-linecap="round" />
</g>
		<g transform="matrix(1 0 0 1 391.29 233.34)"  >
<path style="stroke: none; stroke-width: 1; stroke-linecap: butt; stroke-dashoffset: 0; stroke-linejoin: miter; stroke-miterlimit: 4; fill: rgb(39,62,116); fill-rule: nonzero; opacity: 1;" vector-effect="non-scaling-stroke"  transform=" translate(-844.79, -605.38)" d="M 807.87 616.63 Q 816.24 594.92 824.64 573.22 L 881.7 595.22 Q 873.57 616.4 865.37 637.5500000000001 Q 860.52 635.69 855.72 633.8100000000001 Q 861.64 618.4100000000001 867.61 603.0300000000001 Q 861.28 600.57 854.95 598.1300000000001 Q 849.4000000000001 612.4600000000002 843.88 626.8000000000001 L 834.27 623.07 Q 839.79 608.74 845.34 594.4300000000001 C 840.1700000000001 592.4300000000001 834.98 590.4300000000001 829.8000000000001 588.4300000000001 C 825.6800000000001 599.0500000000001 821.61 609.69 817.48 620.3000000000001 Z" stroke-linecap="round" />
</g>
		<g transform="matrix(1 0 0 1 -369.44 241.9)"  >
<path style="stroke: none; stroke-width: 1; stroke-linecap: butt; stroke-dashoffset: 0; stroke-linejoin: miter; stroke-miterlimit: 4; fill: rgb(39,62,116); fill-rule: nonzero; opacity: 1;" vector-effect="non-scaling-stroke"  transform=" translate(-84.06, -613.95)" d="M 84.36 595.23 C 88.13 588.6800000000001 92.52 582.51 96.62 576.1700000000001 C 98.62 580.6400000000001 100.72 585.1700000000001 102.76 589.6100000000001 C 98.22 597.36 93 604.75 89 612.79 C 86.77 617.12 89.37 621.67 91.14 625.63 C 98.9 622.09 106.63 618.5 114.4 614.99 Q 116.97 620.6 119.54 626.22 Q 91.73 639 63.88 651.72 C 59.88 642.85 55.7 634.0400000000001 51.75 625.13 C 49.85 620.36 47.65 615.13 48.99 609.93 C 51.22 601.56 60.59 596.0699999999999 68.99000000000001 597.5699999999999 C 74.12 598.4799999999999 77.99000000000001 602.3499999999999 80.80000000000001 606.5699999999999 C 81.19101394145463 602.5847543168018 82.40313462144144 598.7236732743719 84.36 595.23 Z M 60.42 615 C 59.74 617.49 60.82 620 61.79 622.24 C 63.86 626.91 66.02 631.55 68.16 636.24 L 82.27 629.78 C 79.46 623.93 77.19 617.78 73.66 612.3299999999999 C 70.37 607.25 61.82 609.5 60.42 615 Z" stroke-linecap="round" />
</g>
		<g transform="matrix(1 0 0 1 427.74 245.02)"  >
<path style="stroke: none; stroke-width: 1; stroke-linecap: butt; stroke-dashoffset: 0; stroke-linejoin: miter; stroke-miterlimit: 4; fill: rgb(39,62,116); fill-rule: nonzero; opacity: 1;" vector-effect="non-scaling-stroke"  transform=" translate(-881.24, -617.06)" d="M 878.75 612.71 C 879.87 609.71 881 606.82 882.17 603.9000000000001 C 884.9399999999999 608.1000000000001 887.74 612.2900000000001 890.4799999999999 616.5100000000001 C 889.1599999999999 619.8600000000001 887.8699999999999 623.2300000000001 886.5799999999999 626.5900000000001 L 872 630.22 Q 873.66 625.8100000000001 875.4 621.4200000000001 C 877.9 620.6600000000001 880.4 619.9000000000001 882.92 619.1500000000001 Z" stroke-linecap="round" />
</g>
		<g transform="matrix(1 0 0 1 362.32 291.14)"  >
<path style="stroke: none; stroke-width: 1; stroke-linecap: butt; stroke-dashoffset: 0; stroke-linejoin: miter; stroke-miterlimit: 4; fill: rgb(39,62,116); fill-rule: nonzero; opacity: 1;" vector-effect="non-scaling-stroke"  transform=" translate(-815.83, -663.19)" d="M 796.81 636 C 798.81 632.75 800.88 629.53 802.9399999999999 626.3 Q 828.8 642.68 854.65 659.0799999999999 C 852.5 662.4599999999999 850.36 665.8599999999999 848.1999999999999 669.2399999999999 Q 824.1999999999999 668.8799999999999 800.3 668.5199999999999 C 811.79 675.8399999999999 823.3 683.0999999999999 834.8 690.4099999999999 Q 831.7299999999999 695.2399999999999 828.67 700.0799999999998 Q 802.78 683.72 777 667.31 C 779.13 663.8399999999999 781.4 660.4599999999999 783.45 656.9499999999999 C 799.1400000000001 656.81 814.84 657.28 830.5400000000001 657.3299999999999 Q 813.65 646.64 796.81 636 Z" stroke-linecap="round" />
</g>
		<g transform="matrix(1 0 0 1 -347.74 305.76)"  >
<path style="stroke: none; stroke-width: 1; stroke-linecap: butt; stroke-dashoffset: 0; stroke-linejoin: miter; stroke-miterlimit: 4; fill: rgb(39,62,116); fill-rule: nonzero; opacity: 1;" vector-effect="non-scaling-stroke"  transform=" translate(-105.76, -677.8)" d="M 90.2 675.69 Q 111.71000000000001 662.1300000000001 133.2 648.5500000000001 C 135.42 652.0200000000001 137.60999999999999 655.5500000000001 139.79999999999998 659.0000000000001 Q 118.29999999999998 672.5700000000002 96.79999999999998 686.1500000000001 C 100.00999999999998 691.2700000000001 103.25999999999998 696.3800000000001 106.46999999999998 701.5100000000001 L 97.72999999999999 707.0500000000001 Q 84.72999999999999 686.47 71.72999999999999 665.9000000000001 Q 76.07999999999998 663.1100000000001 80.46999999999998 660.3700000000001 C 83.74 665.47 87 670.59 90.2 675.69 Z" stroke-linecap="round" />
</g>
		<g transform="matrix(1 0 0 1 -79.63 337.6)"  >
<path style="stroke: none; stroke-width: 1; stroke-linecap: butt; stroke-dashoffset: 0; stroke-linejoin: miter; stroke-miterlimit: 4; fill: rgb(39,62,116); fill-rule: nonzero; opacity: 1;" vector-effect="non-scaling-stroke"  transform=" translate(-373.87, -709.65)" d="M 365 676 C 374.1 674.22 384.39 675.23 391.84 681.17 C 397.61999999999995 685.66 401 692.66 401.97999999999996 699.8199999999999 C 403.47999999999996 710.2399999999999 402.08 721.8199999999999 394.89 729.9899999999999 C 397.9829752528574 732.0712656378265 401.2922727754351 733.8114129673279 404.76 735.18 Q 402.43 739.62 400.18 744.0899999999999 C 395.1 742.4999999999999 390.92 739.17 386.52 736.3299999999999 C 377.62214910218626 739.9073748154946 367.6725691572596 739.8319175461398 358.83 736.1199999999999 C 350.9 732.6199999999999 345.45 724.8299999999999 343.89 716.4199999999998 C 342.3 707.7199999999998 342.59 698.3299999999998 346.43 690.2399999999999 C 350.05095248008445 682.849219968017 356.92288960991044 677.5796246676011 365 676 Z M 360.39 691.21 C 356.25 696.0300000000001 355.59 702.75 355.78 708.85 C 355.96 714.64 357.45 720.94 362.08 724.85 C 366.2 728.61 372.28999999999996 729.34 377.52 727.78 C 375.073939854086 726.208129124831 372.4859590969931 724.8689411522084 369.78999999999996 723.78 Q 371.51 720.18 373.24999999999994 716.61 C 377.44159488427874 718.1901554868809 381.39545019288533 720.3403797781147 384.99999999999994 723 C 388.00338440165314 718.8930101688347 389.6436330955347 713.9477827634008 389.69 708.86 C 389.88 702.86 389.28 696.38 385.42 691.5500000000001 C 379.44 684 366.52 683.86 360.35 691.21 Z" stroke-linecap="round" />
</g>
		<g transform="matrix(1 0 0 1 -14.89 334.97)"  >
<path style="stroke: none; stroke-width: 1; stroke-linecap: butt; stroke-dashoffset: 0; stroke-linejoin: miter; stroke-miterlimit: 4; fill: rgb(39,62,116); fill-rule: nonzero; opacity: 1;" vector-effect="non-scaling-stroke"  transform=" translate(-438.61, -707.02)" d="M 421.26 681.12 C 429.67 674.52 441.40999999999997 674.04 451.40999999999997 676.65 C 459.18999999999994 678.6999999999999 464.97999999999996 685.51 466.65999999999997 693.25 C 462.57 694.04 458.48999999999995 694.79 454.4 695.57 C 452.97999999999996 691.73 450.31 688.1700000000001 446.32 686.8100000000001 C 439.89 684.6500000000001 431.92 685.9300000000001 427.32 691.19 C 423.98 694.9100000000001 422.88 700.07 422.71 704.94 C 422.53999999999996 709.8100000000001 423.03999999999996 715.0500000000001 425.33 719.5300000000001 C 427.6353912429223 724.0877321859992 431.98643868699577 727.2636249357759 437.03 728.07 C 443.38 729.1700000000001 449.78 726.7600000000001 454.89 723.07 C 454.84 720.45 454.83 717.84 454.84 715.24 L 440.66 715.24 Q 440.66 710.02 440.66 704.8100000000001 L 467.33000000000004 704.8100000000001 C 467.33000000000004 713.0600000000001 467.33000000000004 721.3100000000001 467.33000000000004 729.5600000000001 C 457.4904639975835 737.5233031378635 444.5717868471702 740.5976026248392 432.20000000000005 737.9200000000001 C 424.84891066319443 736.3389347151078 418.48713371064434 731.7704832702526 414.64000000000004 725.3100000000001 C 406.92 711.49 408.28 691.38 421.26 681.12 Z" stroke-linecap="round" />
</g>
		<g transform="matrix(1 0 0 1 139.9 335.03)"  >
<path style="stroke: none; stroke-width: 1; stroke-linecap: butt; stroke-dashoffset: 0; stroke-linejoin: miter; stroke-miterlimit: 4; fill: rgb(39,62,116); fill-rule: nonzero; opacity: 1;" vector-effect="non-scaling-stroke"  transform=" translate(-593.4, -707.07)" d="M 588.06 676 C 596.5 674.18 606.18 675.29 612.8699999999999 681.16 C 616.56 684.2199999999999 618.5699999999999 688.7199999999999 620.0199999999999 693.16 L 607.8499999999999 696.11 C 606.9099999999999 693.59 605.93 690.94 603.8499999999999 689.11 C 597.9399999999999 683.64 587.3499999999999 685.02 582.92 691.72 C 579.5999999999999 696.72 579.37 703.0400000000001 579.5 708.87 C 579.76 714.09 580.5 719.82 584.15 723.87 C 588.85 729.18 598.02 729.87 603.22 724.92 C 606.02 722.37 607.22 718.64 608.22 715.14 C 612.22 716.39 616.22 717.61 620.15 718.86 C 618.5 724.5 615.8299999999999 730.15 611.0699999999999 733.86 C 604.54 738.94 595.5999999999999 739.86 587.7099999999999 738.16 C 577.92 736.05 570.1399999999999 727.73 567.9 718.0799999999999 C 565.9120030625553 709.7390471538051 566.3070068606983 701.0073842474847 569.04 692.8799999999999 C 572.0591942135547 684.359503807002 579.2411681001353 677.9855963829496 588.06 676 Z" stroke-linecap="round" />
</g>
		<g transform="matrix(1 0 0 1 -209.08 335.04)"  >
<path style="stroke: none; stroke-width: 1; stroke-linecap: butt; stroke-dashoffset: 0; stroke-linejoin: miter; stroke-miterlimit: 4; fill: rgb(39,62,116); fill-rule: nonzero; opacity: 1;" vector-effect="non-scaling-stroke"  transform=" translate(-244.42, -707.09)" d="M 221.87 676.25 C 229.61 676.25 237.36 676.25 245.11 676.25 C 250.63000000000002 676.25 256.48 676.64 261.26 679.71 C 268.45 684.19 272.12 692.64 272.90999999999997 700.83 C 273.90999999999997 710.45 273.15 721.0300000000001 267.2 729.0500000000001 C 262.88 735.0500000000001 255.26999999999998 737.71 248.1 737.85 C 239.37 738.02 230.63 737.85 221.9 737.91 Q 221.9 724.4699999999999 221.9 711.03 L 215.56 711.03 C 215.56 708.42 215.56 705.81 215.56 703.22 C 217.66 703.22 219.76 703.22 221.87 703.22 C 221.88 694.21 221.93 685.23 221.87 676.25 Z M 234.31 686.67 C 234.31 692.18 234.31 697.67 234.31 703.1999999999999 C 238.69 703.1999999999999 243.08 703.1999999999999 247.47 703.1999999999999 C 247.47 705.79 247.47 708.39 247.47 710.9999999999999 L 234.3 710.9999999999999 C 234.3 716.4899999999999 234.3 721.9999999999999 234.3 727.4599999999999 C 240.63000000000002 727.15 247.3 728.3499999999999 253.35000000000002 726.0699999999999 C 259.35 723.27 260.19 715.7299999999999 260.49 709.8799999999999 C 260.59000000000003 702.7799999999999 260.83 694.0699999999999 254.67000000000002 689.2299999999999 C 248.67 685.37 241.06 687.11 234.31 686.67 Z" stroke-linecap="round" />
</g>
		<g transform="matrix(1 0 0 1 -145.31 335.04)"  >
<path style="stroke: none; stroke-width: 1; stroke-linecap: butt; stroke-dashoffset: 0; stroke-linejoin: miter; stroke-miterlimit: 4; fill: rgb(39,62,116); fill-rule: nonzero; opacity: 1;" vector-effect="non-scaling-stroke"  transform=" translate(-308.19, -707.08)" d="M 283.7 676.24 L 296.09 676.24 C 296.09 684.33 296.09 692.42 296.09 700.51 C 304.15999999999997 700.51 312.21999999999997 700.51 320.28999999999996 700.51 Q 320.28999999999996 688.39 320.28999999999996 676.26 L 332.68999999999994 676.26 Q 332.68999999999994 707.08 332.68999999999994 737.92 L 320.31 737.92 Q 320.31 724.43 320.31 710.92 L 296.1 710.92 Q 296.1 724.41 296.1 737.92 L 283.69 737.92 Q 283.69 707.08 283.7 676.24 Z" stroke-linecap="round" />
</g>
		<g transform="matrix(1 0 0 1 78.11 335.03)"  >
<path style="stroke: none; stroke-width: 1; stroke-linecap: butt; stroke-dashoffset: 0; stroke-linejoin: miter; stroke-miterlimit: 4; fill: rgb(39,62,116); fill-rule: nonzero; opacity: 1;" vector-effect="non-scaling-stroke"  transform=" translate(-531.61, -707.07)" d="M 507.11 676.24 C 511.24 676.24 515.37 676.24 519.51 676.24 Q 519.51 688.36 519.51 700.49 L 543.72 700.49 Q 543.72 688.36 543.72 676.24 C 547.85 676.24 551.98 676.24 556.12 676.24 Q 556.12 707.0600000000001 556.12 737.9 L 543.72 737.9 Q 543.72 724.43 543.72 710.9 Q 531.6 710.9 519.49 710.9 Q 519.49 724.38 519.49 737.9 L 507.1 737.9 Q 507.1 707.07 507.11 676.24 Z" stroke-linecap="round" />
</g>
		<g transform="matrix(1 0 0 1 206.65 335.03)"  >
<path style="stroke: none; stroke-width: 1; stroke-linecap: butt; stroke-dashoffset: 0; stroke-linejoin: miter; stroke-miterlimit: 4; fill: rgb(39,62,116); fill-rule: nonzero; opacity: 1;" vector-effect="non-scaling-stroke"  transform=" translate(-660.15, -707.08)" d="M 630.53 676.24 L 649.14 676.24 Q 654.64 697.24 660.14 718.24 C 663.8199999999999 704.24 667.41 690.24 671.14 676.24 L 689.77 676.24 Q 689.77 707.0600000000001 689.77 737.9 L 678.29 737.9 C 678.29 721.79 678.29 705.68 678.23 689.5799999999999 C 674.11 705.67 670.14 721.8 666.08 737.91 L 654.15 737.91 C 650.1999999999999 721.81 645.97 705.77 642.24 689.62 C 641.78 705.71 642.13 721.81 642 737.9 L 630.53 737.9 Q 630.54 707.08 630.53 676.24 Z" stroke-linecap="round" />
</g>
		<g transform="matrix(1 0 0 1 35.23 343.5)"  >
<path style="stroke: none; stroke-width: 1; stroke-linecap: butt; stroke-dashoffset: 0; stroke-linejoin: miter; stroke-miterlimit: 4; fill: rgb(39,62,116); fill-rule: nonzero; opacity: 1;" vector-effect="non-scaling-stroke"  transform=" translate(-488.73, -715.54)" d="M 477.18 709.66 L 500.3 709.66 L 500.3 721.43 C 492.6 721.43 484.89 721.43 477.18 721.43 Q 477.15 715.54 477.18 709.66 Z" stroke-linecap="round" />
</g>
		<g transform="matrix(1 0 0 1 -19.49 -45.72)"  >
<path style="stroke: none; stroke-width: 1; stroke-linecap: butt; stroke-dashoffset: 0; stroke-linejoin: miter; stroke-miterlimit: 4; fill: rgb(254,254,254); fill-rule: nonzero; opacity: 1;" vector-effect="non-scaling-stroke"  transform=" translate(-434.01, -326.32)" d="M 407 290.81 C 408.556001383182 287.1912036078626 412.1954921897381 284.9190132905165 416.13 285.11 C 423.13 285.5 428.90999999999997 289.98 434.04 294.3 C 439.19 289.95 445.04 285.43 452.04 285.11 C 455.950723557299 284.99625929752966 459.52798553440533 287.3016059049982 461.04 290.91 C 463.74 297.01000000000005 462.81 303.91 461.68 310.31 C 467.81 312.52 474.33 315.22 478.26 320.7 C 480.719356020592 324.1032114453744 480.67883393913104 328.71057210748154 478.15999999999997 332.07 C 474.15999999999997 337.45 467.76 340.12 461.67999999999995 342.31 C 462.8299999999999 348.73 463.74999999999994 355.73 460.96999999999997 361.87 C 459.25394664891195 365.70953666385714 455.23442842345986 367.9809092231439 451.05999999999995 367.47 C 444.41999999999996 366.71000000000004 438.88999999999993 362.47 433.9599999999999 358.32000000000005 C 429.0399999999999 362.47 423.55999999999995 366.66 416.9599999999999 367.46000000000004 C 412.7458929209854 367.98017644385084 408.69215997555585 365.6643390483192 407 361.77 C 404.26 355.65 405.2 348.69 406.33 342.29999999999995 C 400.25 340.12999999999994 393.84 337.46 389.88 332.09999999999997 C 387.31817200843614 328.7242374355986 387.2815540252883 324.06561624623237 389.79 320.65 C 393.73 315.2 400.22 312.51 406.33000000000004 310.29999999999995 C 405.15 303.9 404.23 296.94 407 290.81 Z M 410.82 294.55 C 408.3 299.07 408.76 304.47 409.25 309.42 C 413.72176907390644 308.2940611788445 418.26105996797105 307.455678533951 422.83999999999986 306.91 C 425.5962380966808 303.225777844722 428.5856947855161 299.72193419490276 431.78999999999996 296.4200000000001 C 427.78999999999996 293.42 423.28 290.42 418.09 290.32 C 415.0606000759275 290.2574478255933 412.24899386700463 291.88887365052386 410.8 294.55 Z M 436.28999999999996 296.42 C 439.4906498913806 299.72244357872654 442.4767481518601 303.226265810542 445.2299999999999 306.90999999999997 C 449.80331379849173 307.4540566046365 454.33626995156544 308.29584359842767 458.79999999999984 309.43 C 459.31999999999994 304.51 459.79999999999995 299.17 457.31999999999994 294.66 C 455.90555910320245 291.9804795349265 453.11990701129713 290.3083176982918 450.0899999999999 290.32000000000005 C 444.83 290.36 440.32 293.43 436.27 296.42 Z M 426.34 306.6 C 431.4688028947826 306.2949999919551 436.6111971052173 306.2949999919551 441.7399999999999 306.6 C 439.3408880470896 303.70141410445865 436.76957709521 300.94977744946027 434.03999999999996 298.36 C 431.2983773630455 300.94401294804015 428.72006998755694 303.695988695971 426.32 306.6 Z M 424.34 309.35 C 420.5122989785574 314.64414091429865 417.22581670395783 320.3092189228082 414.53 326.26000000000005 C 417.34999999999997 332.16 420.26 338.26000000000005 424.59999999999997 343.19000000000005 C 430.9757579371557 343.8966263367561 437.4085721512926 343.92344369668996 443.78999999999996 343.27000000000004 C 447.6598851704994 337.9640941426263 450.9613556429615 332.26612479929076 453.64 326.27000000000004 C 450.93536522801946 320.3185634528497 447.6458611995546 314.6507011145985 443.82 309.35 C 437.3213635617165 308.7312083503318 430.77863643828346 308.7312083503318 424.28 309.35 Z M 409.88 312.35 C 410.7363890919979 316.00577855420266 411.8354917454238 319.60041215628837 413.17 323.11 C 415.45808152520954 318.5283337860642 418.0228204306001 314.09013325837657 420.85 309.82000000000005 C 417.1228885623225 310.41708405251137 413.438473279965 311.2555140034377 409.81999999999994 312.33000000000004 Z M 447.3 309.82000000000005 C 450.1293754228598 314.09223002949 452.69418587907677 318.5338939705948 454.98 323.12000000000006 C 456.31451119962236 319.60700748906885 457.4136093455585 316.0090479049559 458.27000000000004 312.3500000000001 C 454.651875885182 311.26414001926156 450.96758732649363 310.4123779318041 447.23999999999995 309.8 Z M 395 321.87 C 393.2185160393655 324.648865916137 393.26969148957244 328.22327428443987 395.13 330.95 C 397.88 335.11 402.55 337.37 406.99 339.3 C 408.25651763358036 334.8755558646042 409.79613789601234 330.53389351935135 411.6 326.30000000000007 C 409.7782103498493 322.08103628420355 408.2414284672965 317.74463871126096 407 313.32 C 402.5 315.27 397.75 317.58 395 321.87 Z M 456.4 326.25 C 458.19302059275043 330.5074666101688 459.7291110916238 334.8686278961005 461 339.30999999999995 C 465.48 337.31 470.22 335.06 473 330.81 C 474.74596544443693 328.0929779334689 474.74596544443693 324.6070220665311 473 321.89 C 470.28 317.59 465.51 315.27 461 313.32 C 459.7610204426893 317.72656301219934 458.2309924446962 322.04605253491786 456.42 326.25 Z M 409.78999999999996 340.25 C 413.39703041106617 341.33936198940785 417.07156959983655 342.1911869831683 420.78999999999996 342.8 C 417.94618921011806 338.52448162686915 415.3776538695833 334.07213103007734 413.1 329.47 C 411.78428878698236 332.99959721426546 410.6855730459714 336.6063236589214 409.81 340.2699999999999 Z M 454.90999999999997 329.5 C 452.606169640745 334.07963059532943 450.0419719935233 338.52357209070976 447.22999999999996 342.81 C 450.9135790974577 342.1714881507355 454.5591203380007 341.33020940291794 458.15 340.29 C 457.3435379732635 336.62555492166774 456.26727149812484 333.0257443821511 454.92999999999995 329.5199999999999 Z M 409.2 343.19 C 408.74 347.93 408.31 353.03 410.46 357.46 C 411.7959294019333 360.42168775606183 414.7510068515312 362.31858097304513 418 362.3 C 423.21 362.22 427.68 359.17 431.73 356.21000000000004 C 428.5346393035926 352.9090866148961 425.55197864181474 349.40871889536277 422.8 345.73 C 418.22810794832424 345.15526004289677 413.6937112113099 344.31382559685284 409.22 343.21 Z M 445.2 345.71 C 442.4529880601605 349.3895260879017 439.47005147957896 352.8868772635667 436.27 356.18 C 440.33 359.18 444.83 362.23 450.06 362.28000000000003 C 453.3063224212639 362.2783347087625 456.25143199750124 360.37750701413916 457.59 357.42 C 459.7 352.99 459.28999999999996 347.92 458.79999999999995 343.19 C 454.3176436606341 344.305474042565 449.7729689444856 345.1536352313246 445.19 345.7300000000001 Z M 426.34 346.01 C 428.7224190790324 348.9106764807497 431.29118657830844 351.65314477321476 434.03 354.21999999999997 C 436.7622039058854 351.6527606155065 439.3242937481919 348.91028895900905 441.7 346.01 C 436.5804546778859 346.29203543613414 431.4491739933124 346.2886969321104 426.33 346 Z" stroke-linecap="round" />
</g>
		<g transform="matrix(1 0 0 1 -19.43 -45.75)"  >
<path style="stroke: none; stroke-width: 1; stroke-linecap: butt; stroke-dashoffset: 0; stroke-linejoin: miter; stroke-miterlimit: 4; fill: rgb(254,254,254); fill-rule: nonzero; opacity: 1;" vector-effect="non-scaling-stroke"  transform=" translate(-434.07, -326.3)" d="M 430.4 319.28 C 435.56 316.28 442.62 321.02 441.9 326.90999999999997 C 441.71 332.54999999999995 434.67999999999995 336.21999999999997 429.95 333.09 C 424.71 330.27 425 321.76 430.4 319.28 Z" stroke-linecap="round" />
</g>
		<g transform="matrix(1 0 0 1 -59.96 228.33)"  >
<path style="stroke: none; stroke-width: 1; stroke-linecap: butt; stroke-dashoffset: 0; stroke-linejoin: miter; stroke-miterlimit: 4; fill: rgb(254,254,254); fill-rule: nonzero; opacity: 1;" vector-effect="non-scaling-stroke"  transform=" translate(-393.54, -600.37)" d="M 374.69 581.81 L 383.17 581.81 C 383.17 587.28 383.17 592.75 383.17 598.2299999999999 L 400.26 581.8199999999999 Q 405.95 581.8199999999999 411.63 581.8199999999999 Q 403.76 589.0699999999999 395.84 596.27 C 401.35999999999996 603.8299999999999 406.92999999999995 611.36 412.45 618.92 C 408.8 618.92 405.14 618.92 401.45 618.92 Q 395.71999999999997 610.2099999999999 389.94 601.53 Q 386.52 604.6 383.12 607.73 C 383.12 611.46 383.12 615.19 383.12 618.9300000000001 L 374.63 618.9300000000001 Q 374.68 600.37 374.69 581.81 Z" stroke-linecap="round" />
</g>
		<g transform="matrix(1 0 0 1 -19.91 228.32)"  >
<path style="stroke: none; stroke-width: 1; stroke-linecap: butt; stroke-dashoffset: 0; stroke-linejoin: miter; stroke-miterlimit: 4; fill: rgb(254,254,254); fill-rule: nonzero; opacity: 1;" vector-effect="non-scaling-stroke"  transform=" translate(-433.59, -600.37)" d="M 416.85 581.81 L 425.34000000000003 581.81 L 425.34000000000003 596.42 L 441.85 596.42 C 441.85 591.55 441.85 586.68 441.85 581.81 L 450.33000000000004 581.81 Q 450.33000000000004 600.3699999999999 450.33000000000004 618.91 L 441.84000000000003 618.91 C 441.84000000000003 613.5 441.84000000000003 608.1 441.84000000000003 602.6999999999999 C 436.34000000000003 602.6999999999999 430.84000000000003 602.6999999999999 425.34000000000003 602.6999999999999 C 425.34000000000003 608.1099999999999 425.34000000000003 613.52 425.34000000000003 618.93 L 416.86 618.93 Z" stroke-linecap="round" />
</g>
		<g transform="matrix(1 0 0 1 19.28 228.31)"  >
<path style="stroke: none; stroke-width: 1; stroke-linecap: butt; stroke-dashoffset: 0; stroke-linejoin: miter; stroke-miterlimit: 4; fill: rgb(254,254,254); fill-rule: nonzero; opacity: 1;" vector-effect="non-scaling-stroke"  transform=" translate(-472.78, -600.36)" d="M 456.15 581.81 L 489.40999999999997 581.81 Q 489.40999999999997 584.93 489.40999999999997 588.0699999999999 L 477.06 588.0699999999999 Q 477.06 603.4899999999999 477.06 618.91 L 468.57 618.91 L 468.57 588.08 L 456.15 588.08 Q 456.14 584.93 456.15 581.81 Z" stroke-linecap="round" />
</g>
		<g transform="matrix(1 0 0 1 58.04 228.31)"  >
<path style="stroke: none; stroke-width: 1; stroke-linecap: butt; stroke-dashoffset: 0; stroke-linejoin: miter; stroke-miterlimit: 4; fill: rgb(254,254,254); fill-rule: nonzero; opacity: 1;" vector-effect="non-scaling-stroke"  transform=" translate(-511.54, -600.36)" d="M 494.9 581.81 L 503.10999999999996 581.81 C 508.87999999999994 590.02 514.49 598.3499999999999 520.3399999999999 606.51 C 520.41 598.28 520.3399999999999 590.04 520.3399999999999 581.81 L 528.18 581.81 Q 528.18 600.3699999999999 528.18 618.91 C 525.3599999999999 618.91 522.55 618.91 519.7399999999999 618.91 C 514.0199999999999 610.81 508.4099999999999 602.63 502.7399999999999 594.52 Q 502.7399999999999 606.6999999999999 502.7399999999999 618.88 L 494.9 618.88 Q 494.9 600.36 494.9 581.81 Z" stroke-linecap="round" />
</g>
</g>
</g>
</svg>